<svg viewBox="0 0 434 275" fill="none" xmlns="http://www.w3.org/2000/svg">
<path d="M216.937 0.788667C216.674 0.788667 216.411 0.788668 216.148 0.920112C215.359 1.183 214.176 1.84022 213.125 2.49745L212.599 2.89178C204.055 8.281 195.38 13.6702 187.099 18.928C178.818 24.0543 170.274 29.4436 161.993 34.7013C146.22 44.6911 130.315 54.6809 114.804 64.4078C86.2809 82.2842 56.7059 100.818 27.5252 119.746C26.3422 120.535 25.1592 121.192 23.9762 121.98C22.9247 122.638 21.7417 123.295 20.6901 123.952C18.8499 125.135 17.0097 126.187 15.3009 127.37C12.672 129.078 10.1746 130.656 7.15136 132.496C6.75702 132.759 6.23124 133.022 5.70547 133.285C3.7338 134.336 1.10491 135.782 1.23636 137.097C1.23636 137.754 2.81369 138.805 3.86524 139.463H3.99669C8.20291 142.091 12.2777 144.72 16.221 147.218C17.7984 148.138 19.3757 149.189 20.8216 150.11C21.8731 150.767 23.0561 151.424 24.1077 151.95C25.4221 152.738 26.6051 153.396 27.7881 154.184C37.6465 160.757 47.2419 166.803 54.6028 171.404C80.8917 187.966 107.312 204.528 132.812 220.695C158.05 236.6 184.207 253.162 210.233 269.461C210.759 269.724 211.285 270.118 211.942 270.644C213.651 271.827 215.885 273.404 217.2 273.404V273.667V273.404C217.988 273.404 218.908 272.747 219.828 272.09C220.223 271.827 220.617 271.564 221.011 271.301C268.594 241.069 317.229 210.574 364.154 180.999C376.116 173.507 388.077 166.014 399.907 158.522C401.222 157.733 402.405 156.813 403.588 156.025C404.508 155.367 405.559 154.71 406.48 154.053C407.794 153.264 409.108 152.476 410.423 151.818C411.474 151.293 412.526 150.635 413.446 150.11L416.206 148.401C420.807 145.509 425.539 142.486 430.271 139.463C431.98 138.411 432.768 137.622 432.768 136.965C432.768 136.308 431.98 135.519 430.14 134.336C427.642 132.759 425.145 131.182 422.647 129.604L420.018 127.895C417.915 126.581 415.812 125.267 413.84 124.084C411.212 122.506 408.714 121.06 406.48 119.483C397.278 113.437 388.735 107.916 379.665 102.264C354.428 86.2276 328.796 70.1913 304.084 54.8123C277.927 38.3818 250.981 21.5569 224.298 4.60056C223.772 4.33767 223.246 3.94333 222.72 3.549C220.88 2.23456 218.777 0.788667 216.937 0.788667ZM217.331 274.062C215.754 274.062 213.651 272.484 211.679 271.17C211.022 270.776 210.496 270.381 209.97 269.987C183.944 253.688 157.787 237.126 132.549 221.221C107.049 205.185 80.6288 188.491 54.3399 171.929C46.979 167.329 37.3836 161.151 27.5252 154.71C26.3422 153.921 25.1592 153.264 23.8448 152.476C22.7932 151.818 21.6102 151.293 20.5587 150.504C18.9814 149.584 17.404 148.532 15.9581 147.612C12.0148 145.115 7.94002 142.617 3.7338 139.857H3.60236C2.28791 138.937 0.710578 138.017 0.710578 136.965C0.579134 135.388 3.33947 133.81 5.44258 132.627C5.96836 132.365 6.49413 132.102 6.88847 131.839C9.78025 129.999 12.4091 128.421 15.038 126.712C16.7468 125.661 18.587 124.478 20.4272 123.295C21.4788 122.638 22.6618 121.98 23.7134 121.323C25.0278 120.535 26.2108 119.877 27.2624 119.22C56.3116 100.292 86.018 81.7585 114.541 63.7506C129.92 54.0237 145.957 44.0339 161.73 34.0441C170.011 28.7863 178.555 23.3971 186.836 18.2708C195.248 13.013 203.924 7.62378 212.336 2.23456L212.862 1.84022C213.913 1.183 215.096 0.394334 216.017 0.131445C216.279 4.99462e-07 216.542 0 216.937 0C219.04 0 221.143 1.57733 223.115 2.89178C223.64 3.28611 224.166 3.68044 224.692 3.94333C251.375 20.8997 278.453 37.856 304.479 54.1551C329.19 69.6656 354.822 85.7018 380.059 101.738C389.129 107.522 397.673 112.911 406.874 118.957C409.24 120.535 411.737 121.98 414.235 123.558C416.206 124.741 418.31 126.055 420.413 127.37L423.042 129.078C425.408 130.656 428.036 132.233 430.534 133.81C432.243 134.862 433.294 135.782 433.294 136.834C433.294 137.754 432.506 138.542 430.665 139.857C425.933 142.88 421.201 145.903 416.601 148.795L413.84 150.504C412.92 151.161 411.869 151.687 410.686 152.213C409.371 152.87 408.057 153.659 406.742 154.447C405.822 155.104 404.771 155.762 403.851 156.419C402.668 157.208 401.353 158.128 400.17 158.916C388.209 166.409 376.379 173.901 364.417 181.393C317.492 210.968 268.857 241.463 221.274 271.696C220.88 271.959 220.486 272.221 220.223 272.484C219.171 273.404 218.251 274.062 217.331 274.062Z" fill="#213114"/>
<path d="M247.562 146.823C247.825 144.589 248.35 141.828 248.745 139.068C249.139 136.439 249.533 133.547 250.059 131.313C250.059 131.181 250.191 130.918 250.322 130.918C251.242 135.913 252.162 141.828 252.951 146.56C251.242 146.692 249.139 146.429 247.562 146.823ZM259.917 154.841C259.523 154.053 259.26 152.738 258.866 151.687C258.472 150.504 258.34 149.189 258.077 148.138C257.683 145.903 257.026 143.537 256.368 141.04C255.843 138.674 255.448 136.571 254.791 133.942C254.397 132.233 253.082 128.158 253.477 126.712C253.74 125.398 254.923 125.661 254.923 124.609C254.791 123.426 253.608 123.558 251.636 123.689C249.665 123.82 245.327 123.032 245.196 124.609C245.064 125.661 246.51 125.792 246.773 126.712C247.036 127.501 246.51 129.078 246.247 130.393C244.538 137.359 243.487 144.589 241.778 151.424C241.515 152.607 241.252 154.053 240.858 154.71C240.464 155.367 238.492 155.761 238.623 156.813C238.755 157.996 242.435 157.865 244.407 157.865C245.459 157.865 247.036 157.733 247.167 156.944C247.43 155.893 245.984 155.63 245.721 154.841C245.327 153.264 246.51 152.87 246.51 150.898H253.74C254.002 152.344 254.528 153.658 254.66 155.104C254.134 156.024 252.819 155.761 252.951 156.944C253.082 158.127 257.157 157.865 258.603 157.865C260.18 157.865 261.495 157.602 261.495 156.682C261.758 156.156 260.443 155.63 259.917 154.841Z" fill="#213114"/>
<path d="M124.926 150.635C124.137 153.133 121.902 153.921 118.353 153.395C118.222 148.926 118.485 144.72 118.748 140.645C121.508 142.617 126.503 145.377 124.926 150.635ZM129.132 144.72C128.08 142.091 126.24 140.12 124.005 138.542C122.56 137.491 119.273 135.519 119.011 134.073C118.748 132.89 118.879 127.632 119.142 126.844C119.536 125.792 121.114 125.398 120.851 124.478C120.588 123.426 115.067 123.689 113.358 123.82C113.227 123.82 113.358 123.952 113.227 123.952C112.701 124.215 112.57 124.083 112.57 124.741C112.57 125.398 112.964 125.398 113.358 125.792C113.753 126.186 114.147 126.318 114.279 126.844C114.804 128.421 114.41 131.707 114.279 133.942C114.147 138.542 113.884 143.537 113.884 148.138C113.884 150.898 114.279 153.921 113.621 155.236C113.227 156.156 111.124 155.893 111.518 157.47C111.781 158.522 114.279 158.259 116.513 158.259C119.142 158.259 123.085 158.39 124.794 157.865C128.08 156.813 130.446 152.344 129.92 147.48C129.789 146.166 129.395 145.509 129.132 144.72Z" fill="#213114"/>
<path d="M222.853 153.396C220.881 154.316 218.909 153.921 216.149 153.921C216.149 151.687 216.018 147.349 216.412 144.589C217.463 143.8 219.304 143.406 220.487 142.88C222.195 142.091 224.956 144.852 225.35 146.692C225.613 149.452 224.693 152.476 222.853 153.396ZM216.675 127.895C221.801 127.238 223.904 129.736 223.378 134.993C222.064 137.622 219.172 138.542 216.28 139.463C216.28 135.519 216.28 131.576 216.675 127.895ZM225.482 139.857C228.11 138.017 228.768 131.576 226.796 128.158C226.007 126.844 224.824 125.924 223.641 125.135C221.67 123.821 219.304 123.689 215.623 123.821C213.389 123.952 209.577 123.163 209.708 125.004C209.708 125.924 211.417 125.924 211.811 126.975C212.074 127.633 211.943 128.816 211.943 130.13C212.206 135.782 212.074 145.115 211.811 151.03C211.811 152.476 211.943 154.316 211.68 154.842C211.286 155.762 209.445 156.156 209.708 157.208C209.971 158.653 215.755 158.128 217.595 158.128C220.487 158.128 222.721 158.128 224.561 157.339C228.505 155.762 230.214 150.898 229.688 146.298C229.293 143.406 227.322 141.303 225.482 139.857Z" fill="#213114"/>
<path d="M140.962 124.741C140.7 123.558 138.071 123.689 135.968 123.821C135.047 123.821 132.419 123.426 132.287 124.872C132.287 125.661 132.944 125.924 133.47 126.187C134.39 126.844 134.39 129.341 134.39 130.656C134.259 137.622 134.127 146.955 134.259 154.842C133.996 156.025 132.156 155.762 132.419 157.076C132.55 158.259 135.047 157.733 136.888 157.865C138.465 157.996 140.568 158.128 140.831 157.076C140.962 156.025 139.517 155.63 139.122 154.71C139.122 154.71 138.991 153.79 138.991 153.527C138.728 149.452 139.122 145.64 139.122 140.383V133.679C139.122 131.313 138.728 128.29 139.254 126.975C139.517 126.055 141.094 125.924 140.962 124.741Z" fill="#213114"/>
<path d="M193.409 146.692C193.278 148.927 193.409 151.161 192.621 152.081C191.306 153.921 187.626 153.79 185.654 152.344C185.26 151.161 184.603 149.978 184.866 148.664C184.997 147.875 186.311 146.692 186.969 146.035C189.072 143.8 191.964 141.04 193.541 138.805C193.672 140.777 193.541 143.8 193.409 146.692ZM186.574 128.947C187.889 128.29 190.255 128.158 191.569 128.816C192.489 129.21 193.672 131.05 193.409 132.496C193.278 133.153 191.964 134.468 191.306 135.125C189.203 137.622 186.443 140.383 184.471 142.223C184.603 137.622 183.288 130.656 186.574 128.947ZM181.054 127.501C180.134 129.21 180.002 131.707 179.871 134.336C179.476 141.829 179.213 151.424 182.237 155.63C182.631 156.156 183.025 156.419 183.683 156.813C186.311 158.522 192.226 158.391 194.592 156.682C195.118 156.287 195.381 156.025 195.775 155.63C198.01 152.607 198.273 147.744 198.273 142.223C198.273 137.228 198.799 130.919 196.958 127.633C194.198 122.506 183.814 122.506 181.054 127.501Z" fill="#213114"/>
<path d="M164.752 136.308C163.569 138.411 160.02 139.594 158.179 140.777C158.179 136.308 158.179 131.97 158.574 127.896C161.991 127.633 164.489 128.421 165.146 130.919C165.54 132.233 165.54 134.994 164.752 136.308ZM164.489 124.347C162.78 123.558 160.02 123.689 157.522 123.821C155.419 123.952 153.053 123.426 151.739 124.478C151.607 125.924 153.316 125.924 153.71 126.975C153.973 127.633 153.842 128.816 153.842 129.999C154.105 135.519 153.973 145.903 153.71 151.03C153.71 152.213 153.842 154.316 153.579 154.842C153.184 155.893 151.344 156.025 151.607 157.208C151.87 158.259 153.842 157.996 155.813 157.996C157.522 157.996 159.757 158.259 160.151 157.208C160.545 155.63 158.968 156.025 158.311 154.973C157.785 154.053 158.179 152.607 158.179 151.03C158.179 149.452 158.048 147.744 158.311 146.166C160.808 144.063 165.672 143.012 168.169 139.594C169.878 137.097 170.798 131.576 168.826 128.158C167.906 126.844 165.935 125.004 164.489 124.347Z" fill="#213114"/>
<path d="M343.516 142.486C341.413 141.96 339.573 141.303 338.259 139.988C335.63 137.491 335.63 131.444 338.916 128.947C339.967 128.158 341.676 128.027 343.385 127.764C343.911 128.027 343.648 128.684 343.648 129.078C343.779 131.839 343.911 135.256 343.911 138.542C343.779 139.988 343.911 141.434 343.516 142.486ZM348.38 154.71C348.117 153.921 348.248 151.95 348.248 150.767C347.986 143.669 347.986 133.416 348.248 126.712C348.643 125.661 350.483 126.187 350.22 124.346C349.563 123.558 348.248 123.689 346.934 123.689C341.413 123.558 337.339 123.952 334.841 126.712C333.658 128.027 332.869 129.341 332.344 131.444C331.029 137.228 332.869 141.96 336.287 144.194C334.973 147.743 334.052 151.555 332.081 154.447C331.686 154.973 331.424 155.104 330.766 155.63C330.241 156.024 329.452 156.024 329.583 156.945C329.846 158.916 334.315 157.207 334.973 156.682C337.864 154.579 338.522 148.795 339.967 146.035C341.15 146.56 342.596 146.955 343.648 147.612C343.648 149.058 343.648 150.504 343.648 151.687C343.648 152.87 344.042 154.053 343.516 154.841C342.991 155.762 341.15 155.63 341.676 157.076C342.071 157.996 344.7 157.733 346.014 157.733C347.854 157.733 350.089 157.996 350.22 156.813C350.483 156.024 348.774 155.63 348.38 154.71Z" fill="#213114"/>
<path d="M98.5025 147.349C97.0566 146.955 94.6906 146.166 94.1648 147.481C93.7705 148.664 95.2164 148.795 95.3478 149.715C95.4793 150.635 94.5592 152.081 94.1648 152.344C92.4561 153.79 89.8272 152.87 88.9071 151.555C85.7524 147.218 86.6725 133.942 88.9071 130.13C89.4328 129.341 90.6158 128.027 91.7988 127.895C94.2963 127.501 94.6906 129.341 95.8736 131.313C95.7422 132.233 94.6906 133.022 95.085 134.073C96.6623 134.599 97.5824 133.416 99.0283 132.627C99.817 132.233 102.577 131.05 102.314 129.867C102.052 128.947 100.606 129.21 99.9484 128.947C99.1597 128.553 98.7654 127.37 98.2396 126.712C97.7138 126.055 97.0566 125.004 96.3994 124.609C95.6107 123.952 94.0334 123.163 92.0617 123.163C89.5643 123.163 87.3297 124.609 86.1467 126.055C83.255 129.604 81.5462 136.571 81.9405 143.011C82.072 145.246 82.5977 147.743 83.255 149.847C83.9122 152.081 84.8323 154.184 85.8838 155.236C87.1983 156.682 90.0901 157.996 92.5875 157.865C96.0051 157.733 98.5025 155.367 99.4226 152.87C99.5541 152.344 99.5541 151.555 100.08 150.898C100.474 150.241 102.183 150.109 102.314 149.189C102.314 147.743 99.817 147.612 98.5025 147.349Z" fill="#213114"/>
<path d="M317.361 123.821C315.389 123.821 311.314 123.164 311.446 124.872C311.446 125.792 312.892 125.661 313.286 126.844C313.417 127.37 313.417 128.29 313.417 128.947C313.417 131.707 313.417 134.073 313.417 136.965C310.92 137.097 308.423 137.097 305.794 137.097C305.662 133.679 305.662 130.13 305.794 126.844C306.319 125.661 308.422 125.792 307.897 124.347C307.502 123.426 304.479 123.821 303.165 123.821C301.062 123.821 299.09 123.558 298.958 124.872C298.958 125.924 300.667 126.055 301.062 126.844C301.456 127.896 301.193 130.393 301.193 132.365C301.193 137.754 301.325 142.092 301.325 147.086C301.325 149.058 301.719 153.659 301.193 154.842C300.667 155.893 298.959 155.63 299.221 156.945C299.484 157.996 301.719 157.733 303.559 157.733C304.873 157.733 307.634 158.259 307.634 156.682C307.634 155.63 306.319 155.63 305.925 154.842C305.794 154.447 305.662 153.527 305.662 153.001C305.662 149.715 305.925 145.115 305.925 141.566C308.554 141.434 311.051 141.434 313.417 141.434C313.68 145.772 313.549 150.373 313.549 154.842C313.023 155.762 311.183 155.893 311.709 157.208C312.234 158.259 314.995 157.733 316.572 157.733C317.624 157.733 319.07 158.128 319.464 157.076C319.858 156.025 318.412 156.025 317.887 154.973C317.492 154.053 317.755 151.161 317.755 149.584C317.755 142.486 317.886 133.679 317.755 126.844C318.149 125.792 320.252 126.055 319.99 124.609C319.858 123.821 318.807 123.821 317.361 123.821Z" fill="#213114"/>
<path d="M285.286 136.308C284.103 138.411 280.554 139.594 278.714 140.777C278.714 136.308 278.714 131.97 279.108 127.895C282.525 127.632 285.023 128.421 285.68 130.919C285.943 132.233 285.943 134.993 285.286 136.308ZM285.023 124.346C283.708 123.689 280.685 123.426 278.451 123.689C276.61 123.952 272.536 123.426 272.273 124.741C272.01 126.187 273.85 126.055 274.244 126.975C274.507 127.632 274.376 128.815 274.376 129.998C274.639 135.256 274.507 145.246 274.244 151.03C274.244 152.475 274.376 154.184 274.113 154.841C273.719 155.893 271.878 156.024 272.141 157.207C272.404 158.259 274.639 157.996 276.348 157.996C277.925 157.996 280.291 158.259 280.685 157.207C281.08 155.762 279.502 156.024 278.845 154.973C278.319 154.053 278.714 152.607 278.714 151.03C278.714 149.452 278.582 147.743 278.845 146.166C281.868 143.8 285.943 143.011 288.44 140.12C290.544 137.622 291.332 131.707 289.361 128.29C288.309 126.844 286.337 125.004 285.023 124.346Z" fill="#213114"/>
<path d="M89.9629 107.522V98.5836H87.3341C86.9397 98.5836 86.8083 98.8465 86.8083 99.3723V105.419C86.8083 106.339 86.6768 106.996 86.5454 107.653H89.9629V107.522ZM92.5918 110.808C92.5918 111.465 92.3289 111.859 91.8032 111.859C91.5403 111.859 91.4088 111.728 91.2774 111.597C91.1459 111.465 91.0145 111.202 91.0145 110.808V109.362H86.1511C86.0196 109.362 85.8882 109.362 85.7567 109.362C85.6253 109.362 85.4938 109.493 85.4938 109.625V110.808C85.4938 111.465 85.2309 111.859 84.7052 111.859C84.4423 111.859 84.3108 111.728 84.1794 111.597C84.0479 111.465 83.9165 111.202 83.9165 110.808V108.705C83.9165 108.048 84.1794 107.653 84.5737 107.522C84.7052 107.522 84.8366 107.259 84.9681 106.996C85.0995 106.602 85.0995 106.076 85.0995 105.287V99.1094C85.0995 97.4006 85.7567 96.4805 86.9397 96.4805H90.7516C91.2774 96.4805 91.5403 97.0063 91.5403 97.9264V107.39C91.9346 107.39 92.0661 107.39 92.1975 107.522C92.4604 107.653 92.4604 107.916 92.4604 108.31V110.808H92.5918Z" fill="#213114"/>
<path d="M219.96 220.432C218.908 221.221 216.937 220.564 215.228 220.958C214.965 218.855 215.096 216.883 215.096 214.78C217.068 214.386 219.697 213.991 220.486 215.7C221.274 216.883 221.011 219.643 219.96 220.432ZM215.096 207.813C217.2 207.945 219.303 207.156 220.223 208.471C220.88 209.259 220.749 210.574 220.223 211.231C219.303 212.414 216.674 212.283 215.096 212.02C215.096 210.442 215.096 209.522 215.096 207.813ZM221.537 213.071C222.457 212.02 223.115 210.442 222.852 208.996C222.326 205.185 216.805 204.922 213.125 205.973C212.73 208.602 212.862 211.625 212.862 214.649C212.862 217.672 212.862 220.695 213.519 223.061C216.805 223.192 219.697 223.718 221.406 222.272C223.64 220.301 223.64 214.911 221.537 213.071Z" fill="#213114"/>
<path d="M211.807 71.1111C211.939 69.5338 214.568 70.4539 215.356 71.1111C214.699 72.4255 211.676 72.6884 211.807 71.1111ZM218.248 42.0619C221.403 42.7191 219.431 47.8454 216.671 48.1083C214.042 48.3712 212.202 46.3995 210.756 45.0851C212.07 43.5078 214.831 41.2732 218.248 42.0619ZM235.73 55.995C235.862 52.5774 233.627 49.9485 231.261 49.0284C227.318 47.5825 223.769 49.1599 221.403 50.8686C219.957 51.9202 218.38 53.629 216.802 54.2862C214.173 55.3378 209.704 53.3661 208.521 55.8635C208.653 56.7836 208.916 57.5723 209.31 58.0981C210.23 57.9666 210.887 57.3094 212.07 57.3094C213.648 59.544 212.333 62.1729 210.361 62.9615C206.418 64.8018 204.052 61.3842 204.052 57.7038C204.052 53.3661 206.681 49.2913 208.653 47.1882C210.756 48.897 212.202 51.0001 215.619 51.0001C217.722 51.0001 219.957 50.08 221.008 48.6341C222.06 47.3196 223.112 44.8222 222.717 42.5876C222.454 40.8789 220.877 39.3015 218.511 39.0386C213.91 38.5129 211.15 40.7474 208.258 42.7191C206.812 40.8789 203.001 38.9072 200.24 40.8789C200.372 41.799 200.766 42.5876 201.029 43.3763C203.395 42.7191 205.104 43.9021 206.155 45.0851C203.921 48.5026 201.16 52.3145 201.029 57.5723C200.897 60.727 201.949 63.093 203.263 64.5389C207.47 69.008 216.014 65.7219 215.882 59.2811C215.882 58.4924 215.619 58.2295 215.619 57.5723C219.957 57.7038 221.666 53.629 224.557 52.1831C227.844 50.4743 233.627 51.7888 232.707 56.3893C232.313 58.7553 229.552 59.2811 226.792 59.1496C226.398 59.6754 226.003 60.8584 226.266 61.6471C228.895 61.7785 230.867 62.1729 231.13 64.4074C231.393 66.3791 230.341 69.1394 228.895 70.3224C226.003 72.6884 222.323 71.374 219.825 70.0595C221.929 66.5105 222.98 59.9383 226.003 57.178C226.923 56.3893 227.844 56.1264 229.289 55.995V53.2346C226.398 52.5774 224.163 54.1548 222.98 55.8635C222.454 56.6522 221.797 57.8352 221.271 58.7553C219.825 61.7785 218.774 65.7219 217.065 68.4822C215.488 67.4306 213.122 66.642 211.15 67.5621C210.099 68.0879 209.704 69.1394 209.047 69.9281C208.916 71.6369 209.178 72.8199 210.099 73.6085C212.333 75.7116 216.539 74.5286 218.248 72.6884C220.088 73.74 221.797 74.7915 224.426 74.7915C230.735 74.923 234.547 70.0595 234.153 62.9615C233.759 61.91 233.233 60.9899 232.313 60.4641C234.021 59.8069 235.599 58.2295 235.73 55.995Z" fill="#213114"/>
<path d="M191.571 213.86C192.359 211.362 193.937 209.654 195.12 207.419C195.382 209.654 195.251 212.282 195.514 214.648C194.199 214.517 192.885 214.123 191.571 213.86ZM197.223 203.213C196.828 202.818 196.303 202.818 195.645 202.687C194.462 203.739 193.937 205.316 193.016 206.762C191.439 209.259 189.993 211.888 188.547 214.517C187.89 215.831 186.839 216.883 186.576 218.329C186.839 218.855 187.496 218.986 188.284 218.986C189.205 218.066 189.599 216.489 190.65 215.831C192.228 216.357 194.331 216.357 195.514 217.146C195.645 218.46 195.514 220.038 196.04 220.958C196.434 221.221 197.091 221.221 197.748 221.221C197.88 215.437 197.354 209.128 197.223 203.213Z" fill="#213114"/>
<path d="M262.286 205.316C261.76 202.687 260.971 200.452 260.314 197.824C262.023 199.664 264.126 201.241 265.572 203.213C264.52 203.87 263.337 205.184 262.286 205.316ZM270.698 204.659C270.041 204.133 269.515 203.607 268.989 203.213C266.755 201.241 264.389 199.007 262.548 197.166C261.497 196.115 260.445 194.8 259.131 194.275C258.605 194.012 257.685 195.326 257.685 195.326C258.868 201.241 260.314 206.893 262.023 212.414C264.783 212.545 263.206 209.391 262.943 207.813C264.389 206.893 265.835 205.973 267.412 205.053C268.463 205.447 269.647 207.419 270.83 207.419C271.224 207.419 272.013 207.025 272.144 206.499C272.144 205.71 271.355 205.316 270.698 204.659Z" fill="#213114"/>
<path d="M172.639 212.414C171.718 212.414 171.324 211.889 170.93 211.363C171.85 206.894 172.901 202.687 174.216 198.613C173.69 198.613 173.296 199.138 172.901 199.401C170.141 201.899 167.249 204.922 164.358 207.288C163.569 207.157 163.175 206.762 162.78 206.236C162.912 205.448 163.7 205.053 164.226 204.528C166.724 202.162 169.615 199.533 172.244 197.167C173.427 196.115 174.479 194.406 175.925 194.144C176.45 194.012 176.976 194.669 177.371 195.064C175.793 200.847 174.347 206.762 172.639 212.414Z" fill="#213114"/>
<path d="M247.563 218.46C245.723 216.489 244.277 214.123 242.7 211.757C241.648 212.282 240.597 213.071 239.282 213.465C239.808 215.7 240.859 217.934 240.859 220.3C240.597 220.563 239.676 220.958 239.414 220.695C238.493 219.906 238.362 218.329 237.968 216.883C236.785 212.94 235.602 208.602 234.813 204.133C235.207 203.607 235.733 203.213 236.653 203.344C237.573 205.71 237.968 208.733 238.625 211.362C241.517 210.705 242.831 208.996 242.7 204.921C242.568 203.081 241.911 200.847 244.408 201.241C244.934 203.738 245.329 207.945 244.146 210.048C245.066 211.362 245.986 212.677 246.906 213.991C247.826 215.306 248.878 216.489 249.535 217.935C249.14 218.329 248.483 218.592 247.563 218.46Z" fill="#213114"/>
<path d="M207.08 180.342C206.685 180.21 206.028 180.079 205.897 180.473C205.371 181.525 205.634 184.679 205.765 187.177C205.765 188.491 205.371 191.514 206.291 191.646C207.474 191.909 207.211 190.463 207.211 189.543C207.211 186.388 207.211 182.971 207.08 180.342Z" fill="#213114"/>
<path d="M212.859 186.125C212.991 184.679 212.728 182.839 212.991 181.656C213.648 181.788 214.436 181.788 214.962 182.051C215.488 183.759 215.488 186.783 212.859 186.125ZM215.882 180.736C214.831 179.816 213.122 180.079 211.545 180.473C211.282 183.102 211.413 186.52 211.413 189.149C211.413 190.069 210.887 191.12 211.808 191.646C213.648 191.778 212.596 189.017 212.859 187.703C214.305 187.703 215.882 187.44 216.54 186.125C217.197 184.679 216.934 181.656 215.882 180.736Z" fill="#213114"/>
<path d="M202.872 189.806C202.477 190.069 201.951 190.069 201.294 190.069C201.031 188.886 201.031 186.914 201.294 185.731C203.66 185.205 203.529 188.492 202.872 189.806ZM203.266 184.417C202.609 184.154 202.083 184.285 201.294 184.022C201.294 182.577 201.426 181.131 201.031 180.342C200.506 180.342 199.98 180.342 199.848 180.736C199.717 180.736 199.585 181.394 199.585 181.394C199.585 184.154 199.717 188.623 199.848 191.515C201.294 191.778 203.003 192.041 204.055 191.12C205.369 189.806 205.238 185.337 203.266 184.417Z" fill="#213114"/>
<path d="M195.512 188.754C194.461 188.623 194.855 190.332 193.278 190.2C191.043 190.069 191.043 181.393 193.672 181.656C194.724 181.788 194.329 183.496 195.907 182.971C196.827 180.605 193.541 179.159 191.701 180.605C189.729 182.051 189.597 188.623 191.043 190.726C191.569 191.515 192.884 192.04 194.198 191.777C194.987 191.646 197.09 189.017 195.512 188.754Z" fill="#213114"/>
<path d="M242.829 185.468C242.435 185.731 241.252 185.731 240.858 185.468C240.463 184.679 240.463 182.839 240.858 182.05C241.384 181.788 242.041 181.656 242.829 181.788V185.468ZM244.275 187.045C244.407 184.811 244.407 182.576 244.275 180.342C241.121 179.159 238.229 181.13 239.149 185.074C239.28 185.994 240.069 186.388 240.332 187.045C239.938 188.491 239.149 189.543 239.018 191.252C239.28 191.514 239.938 191.383 240.332 191.383C240.858 190.069 241.252 188.491 241.778 187.177C242.304 187.308 242.304 186.914 242.829 187.045C243.224 188.228 242.698 190.2 243.092 191.383H244.144C244.538 190.2 244.144 188.491 244.275 187.045Z" fill="#213114"/>
<path d="M225.478 180.473C223.375 179.816 224.821 183.89 224.032 184.942C223.375 184.81 222.455 185.073 222.06 184.942C221.797 183.496 222.586 180.867 221.534 180.341C221.403 179.947 221.14 180.473 220.746 180.341C220.351 181.524 220.483 183.496 220.483 185.993C220.483 187.571 220.089 191.12 221.009 191.383C221.272 191.514 221.534 191.251 221.797 191.383C222.192 190.068 221.929 188.097 222.06 186.519C222.717 186.651 223.769 186.388 224.295 186.651C224.426 188.228 224.032 190.331 224.558 191.383H225.609C225.741 188.491 225.872 184.548 225.741 181.524C225.741 181.393 226.004 180.736 225.478 180.473Z" fill="#213114"/>
<path d="M231.528 187.703C231.791 185.994 232.053 184.416 232.316 182.971C232.711 184.416 232.842 185.994 233.105 187.571C232.579 187.571 231.922 187.571 231.528 187.703ZM231.659 180.473C230.87 182.839 230.213 185.994 229.687 188.754C229.556 189.674 229.162 190.726 229.556 191.514H230.345C231.002 191.12 230.87 189.674 231.265 189.017C231.922 189.017 232.974 188.886 233.499 189.148C233.762 189.937 233.631 190.989 234.288 191.383C234.419 191.646 235.077 191.383 235.34 191.514C234.814 187.703 234.025 184.154 233.236 180.473C232.842 180.342 232.053 180.079 231.659 180.473Z" fill="#213114"/>
<path d="M104.291 108.442C104.291 109.099 103.897 109.493 103.24 109.493H100.348C99.9536 109.493 99.6907 109.362 99.5593 109.23C99.4278 108.968 99.2964 108.705 99.2964 108.179V98.0577C99.2964 97.0061 99.5593 96.6118 100.216 96.6118H103.108C103.765 96.6118 104.028 97.0061 104.028 97.6634C104.028 98.3206 103.634 98.7149 102.977 98.7149H100.742V101.87H102.845C103.503 101.87 103.897 102.264 103.897 102.921C103.897 103.578 103.503 103.973 102.845 103.973H100.742V107.522H102.977C103.897 107.259 104.291 107.653 104.291 108.442Z" fill="#213114"/>
<path d="M115.987 100.687C115.987 99.2408 115.461 98.5836 114.278 98.5836H112.963V102.921H114.278C114.804 102.921 115.198 102.79 115.461 102.395C115.855 101.87 115.987 101.344 115.987 100.687ZM117.695 100.687C117.695 101.607 117.564 102.395 117.301 103.053C117.038 103.71 116.512 104.236 115.987 104.63C115.592 104.893 115.198 104.893 114.804 104.893H113.095V108.048C113.095 108.968 112.832 109.493 112.306 109.493C111.78 109.493 111.518 108.968 111.518 108.048V97.9264C111.518 97.0063 111.78 96.4805 112.438 96.4805H114.541C115.461 96.4805 116.25 96.8748 116.775 97.532C117.433 98.3207 117.695 99.3723 117.695 100.687Z" fill="#213114"/>
<path d="M129.525 108.442C129.525 109.099 129.131 109.493 128.474 109.493H125.582C125.187 109.493 124.925 109.362 124.793 109.23C124.662 108.968 124.53 108.705 124.53 108.179V98.0577C124.53 97.0061 124.793 96.6118 125.45 96.6118H128.342C128.999 96.6118 129.262 97.0061 129.262 97.6634C129.262 98.3206 128.868 98.7149 128.211 98.7149H126.239V101.87H128.342C128.999 101.87 129.394 102.264 129.394 102.921C129.394 103.578 128.999 103.973 128.342 103.973H126.239V107.522H128.474C129.131 107.259 129.525 107.653 129.525 108.442Z" fill="#213114"/>
<path d="M141.226 105.55C141.226 104.236 140.701 103.578 139.518 103.578H138.203V107.522H139.518C140.701 107.522 141.226 106.865 141.226 105.55ZM140.701 100.029C140.701 99.5037 140.569 99.1094 140.306 98.8465C140.043 98.5836 139.781 98.4521 139.386 98.4521H138.203V101.738H139.255C140.306 101.738 140.701 101.212 140.701 100.029ZM142.935 105.55C142.935 106.733 142.672 107.653 142.015 108.442C141.489 109.099 140.701 109.362 139.912 109.362H137.809C137.415 109.362 137.152 109.231 137.02 109.099C136.889 108.836 136.757 108.573 136.757 108.048V97.9264C136.757 97.0063 137.152 96.4805 137.809 96.4805H139.649C140.438 96.4805 140.964 96.7434 141.489 97.2691C142.147 97.7949 142.409 98.5836 142.409 99.6351C142.409 101.081 142.015 102.001 141.226 102.527C142.278 102.921 142.935 103.973 142.935 105.55Z" fill="#213114"/>
<path d="M154.898 108.442C154.898 109.099 154.503 109.493 153.846 109.493H150.954C150.56 109.493 150.297 109.362 150.166 109.23C150.034 108.968 149.903 108.705 149.903 108.179V98.0577C149.903 97.0061 150.166 96.6118 150.823 96.6118H153.715C154.372 96.6118 154.635 97.0061 154.635 97.6634C154.635 98.3206 154.372 98.7149 153.583 98.7149H151.349V101.87H153.452C154.109 101.87 154.503 102.264 154.503 102.921C154.503 103.578 154.109 103.973 153.452 103.973H151.349V107.522H153.583C154.503 107.259 154.898 107.653 154.898 108.442Z" fill="#213114"/>
<path d="M163.572 101.738H167.515V97.9264C167.515 96.8748 167.778 96.4805 168.304 96.4805C168.83 96.4805 169.093 97.0063 169.093 97.9264V108.048C169.093 109.099 168.83 109.493 168.304 109.493C167.778 109.493 167.515 108.968 167.515 108.048V103.71H163.572V108.048C163.572 109.099 163.309 109.493 162.783 109.493C162.258 109.493 161.995 108.968 161.995 108.048V97.9264C161.995 96.8748 162.258 96.4805 162.783 96.4805C163.309 96.4805 163.572 97.0063 163.572 97.9264V101.738Z" fill="#213114"/>
<path d="M183.288 107.653C183.288 108.179 183.025 108.573 182.631 108.967C182.236 109.23 181.842 109.362 181.448 109.493C181.053 109.625 180.79 109.625 180.528 109.625C179.213 109.625 178.161 108.967 177.373 107.653C176.584 106.47 176.321 104.893 176.321 103.052C176.321 101.212 176.716 99.6347 177.504 98.3203C178.293 97.0059 179.344 96.3486 180.659 96.3486C181.842 96.3486 182.631 96.743 183.156 97.6631C183.288 97.926 183.419 98.1889 183.419 98.4517C183.419 98.7146 183.288 98.9775 183.156 99.109C183.025 99.2404 182.893 99.3719 182.631 99.3719C182.499 99.3719 182.368 99.3719 182.236 99.2404C181.842 98.9775 181.579 98.7146 181.316 98.7146C181.185 98.5832 180.922 98.5832 180.659 98.5832C179.87 98.5832 179.213 99.109 178.819 100.161C178.424 101.081 178.162 102.132 178.162 103.315C178.162 104.498 178.424 105.55 178.819 106.338C179.345 107.259 179.87 107.784 180.79 107.784C181.185 107.784 181.448 107.784 181.71 107.653C181.973 107.521 182.236 107.39 182.499 107.259C182.762 107.127 182.893 106.996 183.025 106.996C183.156 106.996 183.419 107.127 183.419 107.259C183.288 107.127 183.288 107.39 183.288 107.653Z" fill="#213114"/>
<path d="M197.087 108.573C197.087 108.836 196.956 109.099 196.824 109.362C196.693 109.493 196.561 109.625 196.298 109.625C196.036 109.625 195.773 109.362 195.51 108.968L192.487 104.367L191.829 103.973V108.179C191.829 109.099 191.566 109.625 191.041 109.625C190.515 109.625 190.252 109.099 190.252 108.179V97.9264C190.252 97.0063 190.515 96.4805 191.041 96.4805C191.566 96.4805 191.829 97.0063 191.829 97.9264V101.738L195.115 97.1377C195.378 96.7434 195.773 96.4805 195.904 96.4805C196.167 96.4805 196.298 96.6119 196.43 96.7434C196.561 97.0063 196.693 97.1377 196.693 97.532C196.693 97.7949 196.561 98.1893 196.167 98.715L193.275 102.527L196.693 107.522C196.956 107.785 197.087 108.179 197.087 108.573Z" fill="#213114"/>
<path d="M211.285 108.048C211.285 108.968 211.022 109.493 210.496 109.493C209.97 109.493 209.707 108.968 209.707 108.048V100.292L205.37 108.705C205.107 109.231 204.844 109.493 204.45 109.493C203.924 109.493 203.792 109.099 203.792 108.179V97.7949C203.792 96.8747 204.055 96.349 204.581 96.349C205.107 96.349 205.37 96.8747 205.37 97.7949V105.419C205.37 105.419 205.37 105.419 205.501 105.287L209.707 97.0062C209.97 96.4804 210.233 96.2175 210.628 96.2175C211.153 96.2175 211.416 96.6119 211.416 97.532V108.048H211.285Z" fill="#213114"/>
<path d="M224.429 93.8516C224.429 94.3773 224.167 94.9031 223.772 95.2975C223.378 95.6918 222.984 95.8232 222.589 95.8232C222.195 95.8232 221.801 95.6918 221.406 95.2975C221.012 94.9031 220.749 94.3773 220.749 93.8516C220.749 93.3258 220.88 93.0629 221.275 93.0629C221.538 93.0629 221.669 93.1943 221.932 93.5887C222.195 93.983 222.458 94.1145 222.721 94.1145C222.984 94.1145 223.246 93.983 223.509 93.5887C223.772 93.1943 223.904 93.0629 224.167 93.0629C224.298 92.9314 224.429 93.1943 224.429 93.8516ZM226.27 108.048C226.27 108.968 226.007 109.493 225.481 109.493C224.955 109.493 224.692 108.968 224.692 108.048V100.292L220.355 108.705C220.092 109.231 219.829 109.493 219.435 109.493C218.909 109.493 218.777 109.099 218.777 108.179V97.7949C218.777 96.8748 219.04 96.349 219.566 96.349C220.092 96.349 220.355 96.8748 220.355 97.7949V105.419C220.355 105.419 220.355 105.419 220.486 105.287L224.692 97.0062C224.955 96.4804 225.218 96.2176 225.612 96.2176C226.138 96.2176 226.401 96.6119 226.401 97.532V108.048H226.27Z" fill="#213114"/>
<path d="M252.297 100.687C252.297 99.2408 251.771 98.5836 250.588 98.5836H249.273V102.921H250.588C251.114 102.921 251.508 102.79 251.771 102.395C252.165 101.87 252.297 101.344 252.297 100.687ZM254.005 100.687C254.005 101.607 253.874 102.395 253.611 103.053C253.348 103.71 252.822 104.236 252.297 104.63C251.902 104.893 251.508 104.893 251.114 104.893H249.536V108.048C249.536 108.968 249.273 109.493 248.748 109.493C248.222 109.493 247.959 108.968 247.959 108.048V97.9264C247.959 97.0063 248.222 96.4805 248.879 96.4805H250.982C251.902 96.4805 252.691 96.8748 253.217 97.532C253.743 98.3207 254.005 99.3723 254.005 100.687Z" fill="#213114"/>
<path d="M265.836 108.442C265.836 109.099 265.442 109.493 264.785 109.493H261.893C261.499 109.493 261.236 109.362 261.104 109.23C260.973 108.968 260.841 108.705 260.841 108.179V98.0577C260.841 97.0061 261.104 96.6118 261.761 96.6118H264.653C265.31 96.6118 265.573 97.0061 265.573 97.6634C265.573 98.3206 265.31 98.7149 264.522 98.7149H262.287V101.87H264.39C265.048 101.87 265.442 102.264 265.442 102.921C265.442 103.578 265.048 103.973 264.39 103.973H262.419V107.522H264.653C265.573 107.259 265.836 107.653 265.836 108.442Z" fill="#213114"/>
<path d="M279.77 107.653C279.77 108.179 279.507 108.573 279.113 108.967C278.718 109.23 278.324 109.362 277.93 109.493C277.535 109.625 277.272 109.625 277.009 109.625C275.695 109.625 274.643 108.967 273.855 107.653C273.066 106.47 272.803 104.893 272.803 103.052C272.803 101.212 273.198 99.6347 273.986 98.3203C274.775 97.0059 275.826 96.3486 277.141 96.3486C278.324 96.3486 279.113 96.743 279.638 97.6631C279.77 97.926 279.901 98.1889 279.901 98.4517C279.901 98.7146 279.77 98.9775 279.638 99.109C279.507 99.2404 279.375 99.3719 279.113 99.3719C278.981 99.3719 278.85 99.3719 278.718 99.2404C278.324 98.9775 278.061 98.7146 277.798 98.7146C277.667 98.5832 277.404 98.5832 277.141 98.5832C276.352 98.5832 275.695 99.109 275.301 100.161C274.906 101.081 274.643 102.132 274.643 103.315C274.643 104.498 274.906 105.55 275.301 106.338C275.826 107.259 276.352 107.784 277.272 107.784C277.667 107.784 277.93 107.784 278.192 107.653C278.455 107.521 278.718 107.39 278.981 107.259C279.244 107.127 279.375 106.996 279.507 106.996C279.638 106.996 279.901 107.127 279.901 107.259C279.638 107.127 279.77 107.39 279.77 107.653Z" fill="#213114"/>
<path d="M291.859 97.532C291.859 98.1893 291.465 98.5836 290.808 98.5836H289.493V108.048C289.493 108.968 289.23 109.493 288.704 109.493C288.179 109.493 287.916 108.968 287.916 108.048V98.5836H286.601C285.944 98.5836 285.55 98.1893 285.55 97.532C285.55 96.8748 285.944 96.4805 286.601 96.4805H290.676C291.465 96.4805 291.859 96.8748 291.859 97.532Z" fill="#213114"/>
<path d="M301.722 98.4517C301.065 98.4517 300.408 98.8461 300.013 99.6347C299.488 100.423 299.356 101.475 299.356 103.052C299.356 104.235 299.488 105.287 299.882 106.076C300.276 106.996 300.934 107.521 301.722 107.521C302.511 107.521 303.168 106.996 303.694 106.076C304.088 105.287 304.22 104.235 304.22 103.052C304.22 101.606 303.957 100.423 303.562 99.6347C303.037 98.8461 302.511 98.4517 301.722 98.4517ZM305.928 102.921C305.928 104.761 305.534 106.338 304.877 107.521C304.088 108.836 303.037 109.493 301.722 109.493C300.408 109.493 299.356 108.836 298.699 107.521C297.91 106.338 297.647 104.761 297.647 102.921C297.647 101.081 298.042 99.5033 298.699 98.3203C299.488 97.0059 300.539 96.3486 301.722 96.3486C303.037 96.3486 304.088 97.0059 304.877 98.3203C305.534 99.5033 305.928 101.081 305.928 102.921Z" fill="#213114"/>
<path d="M317.621 100.687C317.621 99.2408 317.095 98.5836 315.912 98.5836H314.598V102.921H315.912C316.438 102.921 316.832 102.79 317.095 102.395C317.358 101.87 317.621 101.344 317.621 100.687ZM319.198 100.687C319.198 101.607 319.067 102.395 318.804 103.053C318.541 103.71 318.015 104.236 317.49 104.63C317.095 104.893 316.701 104.893 316.307 104.893H314.729V108.048C314.729 108.968 314.466 109.493 313.941 109.493C313.415 109.493 313.152 108.968 313.152 108.048V97.9264C313.152 97.0063 313.415 96.4805 314.072 96.4805H316.175C317.095 96.4805 317.884 96.8748 318.41 97.532C318.935 98.3207 319.198 99.3723 319.198 100.687Z" fill="#213114"/>
<path d="M329.978 104.499L328.664 98.8465V98.978L327.35 104.367H329.978V104.499ZM332.607 108.573C332.607 108.836 332.476 109.099 332.344 109.231C332.213 109.362 331.95 109.494 331.819 109.494C331.424 109.494 331.161 109.099 331.03 108.442L330.504 106.339H326.824L326.298 108.442C326.167 109.099 325.904 109.362 325.509 109.362C325.246 109.362 325.115 109.231 324.984 109.099C324.852 108.968 324.721 108.705 324.721 108.311C324.721 108.048 324.721 107.916 324.852 107.653L327.481 97.5321C327.744 96.612 328.138 96.0862 328.664 96.0862C329.19 96.0862 329.584 96.4805 329.847 97.4006L332.476 107.653C332.476 108.179 332.607 108.311 332.607 108.573Z" fill="#213114"/>
<path d="M340.891 101.738H344.834V97.9264C344.834 96.8748 345.097 96.4805 345.623 96.4805C346.149 96.4805 346.411 97.0063 346.411 97.9264V108.048C346.411 109.099 346.149 109.493 345.623 109.493C345.097 109.493 344.834 108.968 344.834 108.048V103.71H340.891V108.048C340.891 109.099 340.628 109.493 340.102 109.493C339.576 109.493 339.313 108.968 339.313 108.048V97.9264C339.313 96.8748 339.576 96.4805 340.102 96.4805C340.628 96.4805 340.891 97.0063 340.891 97.9264V101.738Z" fill="#213114"/>
</svg>
