<?xml version="1.0" encoding="UTF-8"?>
<svg width="148" height="60" fill="none" version="1.1" viewBox="0 0 148 60" xmlns="http://www.w3.org/2000/svg">
 <g clip-path="url(#clip0_863_520)">
  <rect width="148.08" height="60.508" fill="#000"/>
  <g stroke-width=".77447">
   <path d="m36.218 37.173h1.0623c0.19315 0 0.38631 0.03222 0.56335 0.08047 0.78872 0.20926 1.1428 0.61168 1.2233 1.4164 0.03222 0.24148 0.01611 0.48288-0.01611 0.72429-0.17704 1.3037-0.33798 2.6076-0.45067 3.9113-0.11269 1.2072-0.2414 2.4143-0.35409 3.6215-0.04833 0.48288-0.08047 0.94966-0.11269 1.4325-0.08047 1.1106-0.12879 2.2373-0.12879 3.364 0 0.40234-0.03214 0.80476-0.04825 1.2072-0.01611 0.33798-0.01611 0.35409-0.38631 0.30584-0.5151-0.04833-1.014-0.1288-1.513-0.20926-1.2233-0.20926-2.4143-0.5151-3.5733-0.93355-0.32187-0.11269-0.33798-0.11269-0.25751-0.43463 0.27362-1.1588 0.19315-2.3178 0.06436-3.4766-0.08047-0.70826-0.14483-1.4004-0.33798-2.0764-0.45067-1.4969-1.175-2.8651-2.012-4.1849-0.85308-1.3199-1.8349-2.5431-2.8811-3.7181-0.62771-0.70818-1.0945-1.4969-1.2876-2.4305-0.09658-0.49899-0.11268-0.99791-0.04833-1.4808 0.19315-1.513 0.25759-3.026 0.38631-4.539 0.17704-2.028 0.32195-4.04 0.48288-6.0681 0.1288-1.6096 0.24148-3.2192 0.38631-4.8287 0.14483-1.5452 0.25751-3.0904 0.3702-4.6356 0.09658-1.1911 0.19315-2.3822 0.28973-3.5893 0.03222-0.37021 0.16094-0.59555 0.49899-0.78869 1.9153-1.0945 3.9274-1.9476 6.0681-2.4948 0.6116-0.16096 0.6116-0.16096 0.54724 0.45068-0.11269 1.1106-0.20926 2.2212-0.32195 3.3479-0.17704 1.7544-0.3702 3.4928-0.53113 5.2472-0.11269 1.2394-0.20926 2.4787-0.32187 3.7342-0.1449 1.6739-0.30584 3.3479-0.45074 5.0218-0.08047 1.0141-0.14483 2.0442-0.22529 3.0582-0.08047 1.1588-0.17704 2.3339-0.24148 3.4927-0.03214 0.57946-0.01611 1.1589-0.01611 1.7384 0 1.0945 0.01611 2.1729 0.08055 3.2674 0.01603 0.3702 0.01603 0.3702 0.3702 0.38631 1.0462 0 2.0924 0.03222 3.1225 0.08047v0z" fill="#f2916d"/>
   <path d="m43.703 52.56c-0.09658-1.3842-0.04825-2.7845-0.09658-4.1849 0-0.06444-0.01611-0.12879-0.01611-0.19315-0.03214-1.8188-0.04825-3.6537-0.09658-5.4726-0.04825-1.9153-0.04825-3.8469-0.11261-5.7622-0.04833-1.6901-0.04833-3.364-0.09658-5.0541-0.09658-4.3298-0.17704-8.6434-0.25759-12.973-0.04825-2.4305-0.06436-4.877-0.12872-7.3075-0.03222-1.2877-0.06444-2.5592-0.08047-3.8469 0-0.24144-0.03222-0.48288-0.06444-0.70822-0.01611-0.22534 0.06444-0.32191 0.30584-0.28972 0.41852 0.064383 0.82086 0.11267 1.2394 0.17705 1.4969 0.27363 2.9616 0.67602 4.3941 1.2233 0.2414 0.096569 0.35409 0.22534 0.38631 0.46677 0.30584 1.851 0.6116 3.702 0.93355 5.5369 0.43456 2.5592 0.86919 5.1184 1.3037 7.6616 0.17704 1.0462 0.33798 2.0764 0.51502 3.1226 0.20926 1.3681 0.09658 2.7041-0.3702 4.0239-0.45067 1.3037-0.82086 2.6236-1.2393 3.9435-0.1288 0.43456-0.24148 0.86911-0.40242 1.2876-0.32195 0.83697-0.43456 1.6901-0.45067 2.5753-0.01611 2.012-0.04833 4.04-0.1288 6.052-0.04825 1.3359-0.03222 2.6557-0.09658 3.9917-0.04825 1.1106-0.06436 2.2052-0.08047 3.3158 0 0.3702-0.06436 0.7404-0.04833 1.0945 0 0.27362-0.0965 0.40242-0.33798 0.49899-1.0623 0.40234-2.1568 0.7404-3.2674 0.99791-0.40242 0.09658-0.82086 0.17704-1.2233 0.25751-0.49899 0.11268-0.49899 0.09658-0.48288-0.43456z" fill="#e68a23"/>
   <path d="m54.97 11.838c11.154 8.9654 11.09 24.9 2.4626 33.882-0.09658-0.28973-0.01611-0.56335-0.01611-0.82094 0.04833-1.1267 0.1288-2.2694 0.19315-3.3961 0.11269-1.9476 0.20926-3.8952 0.35417-5.8428 0.08047-0.94966-0.09658-1.8188-0.5151-2.688-0.62771-1.3037-1.3199-2.5592-1.851-3.8952-0.30584-0.77254-0.67604-1.529-0.83697-2.35-0.11268-0.59549-0.1449-1.2072-0.1449-1.8188 0-2.4627 0.08055-4.9253 0.16101-7.404 0.04825-1.4969 0.08047-3.0099 0.12872-4.5068 0-0.3702 0.03222-0.7243 0.06444-1.1589z" fill="#b54914"/>
   <path d="m23.503 13.48c0.03219 1.1267 0.06438 2.1729 0.06438 3.2352 0.01609 3.1387 0 6.2773 0.04829 9.416 0.03219 2.6075-0.01609 5.215 0.06438 7.8225 0.04829 1.7545-0.56335 3.2031-1.6418 4.5229-0.45067 0.56335-0.93355 1.0945-1.4969 1.5452-0.27363 0.22529-0.49896 0.53113-0.7565 0.80476-0.08048 0.09658-0.14487 0.20926-0.33801 0.22537-2.4948-4.6839-3.3479-9.6736-2.527-14.921 0.91746-5.7783 4.1205-10.446 6.5832-12.651z" fill="#f07d2a"/>
   <path d="m55.163 36.448c0.14483 2.527 0.06436 5.0541 0.12872 7.5972 0.03222 1.1267 0.01611 2.2373 0.06444 3.364 0.01611 0.28973-0.09658 0.46678-0.30584 0.64382-1.1589 0.94966-2.3982 1.7705-3.7021 2.4787-0.06436 0.03222-0.14483 0.08047-0.20918 0.11268-0.19315 0.08047-0.28973 0.03222-0.25759-0.17704 0.04833-0.38631 0.06444-0.77261 0.09658-1.1428 0.08055-0.93355 0.17712-1.8832 0.25759-2.8168 0.09658-1.0301 0.17704-2.0603 0.27362-3.1065 0.04825-0.51502 0.06436-1.014 0.11268-1.529 0.16094-1.7544 0.27362-3.5089 0.41845-5.2633 0.03222-0.30584 0.04833-0.6116 0.08047-0.90133 0.08047-0.82094 0.56335-1.4003 1.2233-1.8671 0.22537-0.16101 0.43463-0.1449 0.67604-0.04833 0.72429 0.28973 1.1428 0.80476 1.1589 1.5935-0.01611 0.35409-0.01611 0.70818-0.01611 1.0623z" fill="#de9a7c"/>
  </g>
  <g fill="#fff" stroke-width=".77447">
   <path d="m76.635 17.617v-3.4606c0-0.3541 0-0.3541 0.37028-0.3702h0.62771c0.35409 0 0.35409 0 0.35409 0.3702v5.5852 0.33806c0 0.16094 0.04833 0.2414 0.22537 0.2414h2.9777c0.2414 0 0.2414-0.14483 0.2414-0.32195v-3.6054-2.3017c0-0.22534 0.06444-0.32192 0.28973-0.30582 0.33806 0.03219 0.7565-0.12877 0.98188 0.06438 0.22529 0.19314 0.08047 0.62773 0.08047 0.96576 0.01611 1.6901 0 3.364 0 5.0541 0 0.51502-0.03222 0.45067 0.46678 0.45067h0.09658c0.25751-0.04825 0.32187 0.08047 0.32187 0.32195-0.01603 0.69207-0.01603 1.3842 0 2.0603 0 0.22529-0.04825 0.32187-0.28973 0.30576-0.19308-0.01611-0.38623-0.01611-0.57938 0-0.27362 0.03222-0.32195-0.09658-0.32195-0.33798 0.01611-0.32195 0-0.64382 0-0.96577 0-0.16094-0.06436-0.22529-0.22537-0.22529h-1.1106-4.0883c-0.43456 0-0.41852 0.03214-0.41852-0.40242 0.01611-1.1428 0-2.3017 0-3.4606z"/>
   <path d="m76.957 28.803c-0.24148-0.24148-0.48288-0.46678-0.72429-0.70826-0.12879-0.11269-0.11268-0.20926 0-0.32187 0.16094-0.17704 0.33798-0.33806 0.54724-0.46678 1.352-0.91752 3.4606-0.86919 4.7482 0.09658 0.54724 0.40234 0.93355 0.93355 1.175 1.5452 0.38623 0.98188 0.43456 1.9959 0.14483 3.0099-0.46678 1.6417-1.8832 2.7202-3.6376 2.7845-0.54724 0.01611-1.0945-0.03214-1.6096-0.19315-0.3702-0.11261-0.70818-0.28973-1.0301-0.51502-0.69215-0.5151-0.69215-0.54724-0.06436-1.1267 0.11269-0.09658 0.20918-0.19315 0.33798-0.28973 0.91744 0.88522 1.9637 1.1267 3.1387 0.69215 0.91744-0.33806 1.3842-1.0946 1.5452-2.0603-0.14483-0.09658-0.28973-0.06444-0.41845-0.06444h-3.2192c-0.45067 0-0.46678 0-0.46678-0.43456 0-0.82086-0.09658-0.67604 0.67604-0.67604 0.96569-0.01611 1.9153 0 2.8811 0 0.16094 0 0.32187 0.03222 0.49899-0.04825-0.17712-0.94966-0.65993-1.674-1.5935-1.9798-1.0946-0.3702-2.1247-0.19315-2.9294 0.75651z"/>
   <path d="m93.825 13.786c0.51479 0 0.93378 0.01609 1.352 0 0.24164-0.01609 0.3702 0.09658 0.49876 0.28972 0.49954 0.78866 0.9983 1.5613 1.4971 2.3339 0.17735 0.01611 0.19284-0.1288 0.24164-0.20926 0.45074-0.70818 0.90149-1.4003 1.336-2.1085 0.12856-0.22534 0.27339-0.30582 0.53129-0.28972 0.38569 0.0161 0.78842 0 1.1911 0-0.0325 0.22534-0.16109 0.32192-0.24163 0.45068-0.65986 0.98181-1.336 1.9637-2.0121 2.9295-0.12856 0.19315-0.12856 0.32187 0 0.49892 0.77292 1.0946 1.5288 2.2052 2.3017 3.3158 0.0968 0.1288 0.17735 0.25751 0.28965 0.43456-0.28965 0.11269-0.5793 0.01611-0.85269 0.06444-0.59557 0.11261-0.96577-0.1288-1.2562-0.65993-0.44997-0.80483-0.99752-1.5613-1.5125-2.35-0.19362 0.16094-0.27339 0.35409-0.38646 0.51502-0.46701 0.72429-0.93324 1.4487-1.384 2.189-0.12856 0.20926-0.2579 0.32187-0.53129 0.30584-0.41822-0.03222-0.82094 0-1.2394 0-0.03222-0.17712 0.08047-0.25759 0.14483-0.35417 0.74063-1.0945 1.481-2.1729 2.2214-3.2674 0.3702-0.54724 0.35393-0.35409-0.01626-0.90133-0.6281-0.93355-1.2717-1.851-1.9153-2.7685-0.06451-0.11267-0.14498-0.22534-0.25767-0.41849z"/>
   <path d="m86.373 17.633v-3.4606c0-0.3702 0-0.3702 0.3702-0.3702h4.2815c0.35409 0 0.35409 0 0.35409 0.3702 0 0.25754 0.11269 0.56337-0.04833 0.74041-0.17704 0.17704-0.48281 0.04825-0.7404 0.04825-0.85308 0.01611-1.7062 0.01611-2.5431 0-0.2414 0-0.33798 0.06444-0.33798 0.32195 0.01611 0.46678 0.01611 0.93355 0 1.4003 0 0.2414 0.08047 0.30584 0.30584 0.28973 0.88522-0.01611 1.7705 0 2.6397 0h0.33798c0.11269 0 0.17704 0.06436 0.16094 0.17704v0.09658c0.03222 0.82086 0.03222 0.82086-0.77262 0.82086-0.78864 0-1.5774 0.01611-2.3499 0-0.25759 0-0.33806 0.08047-0.32195 0.33806 0.01611 0.53113 0 1.0623 0 1.5935 0 0.32187 0.01611 0.33798 0.35409 0.33798h3.0743c0.45074 0 0.40242-0.01611 0.40242 0.41852 0 0.75643 0 0.75643-0.7565 0.75643h-3.8951c-0.59557 0-0.53121 0.06444-0.53121-0.54724 0.01611-1.1267 0.01611-2.2373 0.01611-3.3318z"/>
   <path d="m88.868 31.33v2.8811c0 0.33798 0 0.33798-0.35417 0.33798-0.32187 0-0.70818 0.1288-0.93355-0.04825-0.22529-0.19315-0.08047-0.61168-0.08047-0.91744-0.01611-1.6739 0-3.3319 0-5.0058 0-0.64382 0.08047-0.54724-0.56335-0.54724-0.49899 0-0.99791-0.01611-1.4969 0-0.25751 0.01611-0.33798-0.08047-0.32187-0.33798 0.01603-0.20926 0.01603-0.41853 0-0.62779 0-0.16094 0.06436-0.22529 0.2253-0.22529h0.38631 5.0541c0.49899 0 0.45067-0.03222 0.45067 0.41845 0 0.7565 0 0.7565-0.7565 0.7565-0.43456 0-0.86911 0.01611-1.3037 0-0.2414-0.01611-0.33798 0.06444-0.32187 0.32195 0.03214 1.014 0.01611 2.0119 0.01611 2.9938z"/>
   <path d="m76.635 43.756v-3.4606c0-0.41845 0-0.43456 0.40234-0.43456h3.8952c0.2414 0 0.35409 0.06436 0.32187 0.32187-0.01603 0.20926-0.01603 0.41852 0 0.62779 0.01611 0.20926-0.08047 0.27362-0.27362 0.27362-0.78864-0.01611-1.5774 0-2.35 0h-0.28965c-0.32195 0.01611-0.32195 0.01611-0.33806 0.35409v0.28973 5.4726c0 0.40234 0 0.3702-0.3702 0.3702-0.2414 0-0.48288-0.01611-0.72429 0-0.24148 0.01603-0.28973-0.09658-0.28973-0.30584 0.01611-0.65993 0-1.3199 0-1.9637 0.01611-0.5151 0.01611-1.0301 0.01611-1.5452z"/>
   <path d="m104.55 30.686v-3.4123c0-0.40234 0-0.40234 0.3702-0.40234h3.8948c0.33767 0 0.35394 0 0.35394 0.32187 0 0.27362 0.11307 0.61168-0.048 0.78872-0.17736 0.19315-0.51503 0.06436-0.77292 0.06436-0.62733 0.01611-1.2554 0-1.8828 0-0.61183 0-0.54755-0.08047-0.54755 0.53113v5.4243 0.33806c0.0163 0.16094-0.0643 0.22529-0.22537 0.22529-0.27339 0-0.54678-0.01603-0.82094 0-0.25713 0.01611-0.33767-0.08047-0.32141-0.33798 0.0155-0.17704 0-0.35409 0-0.53113v-3.0099z"/>
   <path d="m89.173 39.909c-0.88522-0.30576-1.8027-0.33798-2.7041-0.09658-2.527 0.69215-3.3158 3.0743-2.7684 5.1024 0.49892 1.7705 2.0119 2.865 3.9756 2.865 2.2856 0 3.9112-1.4808 4.1044-3.7342 0.17704-1.8993-0.85308-3.541-2.6075-4.1366zm1.1428 3.8308c0 1.2716-0.65993 2.3017-1.7544 2.6397-1.7705 0.54724-3.3801-0.49892-3.525-2.4787-0.03214-0.3702 0.01611-0.7404 0.11269-1.0946 0.38631-1.3037 1.513-2.0441 2.8972-1.8992 1.2072 0.12872 2.1568 1.1588 2.2534 2.4305 0.01611 0.14483 0.01611 0.27362 0.01611 0.40234z"/>
   <path d="m121.38 47.748v-0.91744c0-0.43464 0.0488-0.43464-0.40195-0.43464h-0.38646c-0.40195 0-0.40195 0-0.54755-0.3702-0.65985-1.7705-1.3197-3.541-1.9796-5.2955-0.096-0.27362-0.14482-0.61168-0.33767-0.77261-0.22537-0.19315-0.5793-0.06436-0.88522-0.06436-0.46701 0-0.40272-0.09658-0.59557 0.43456-0.65985 1.7705-1.336 3.525-1.9958 5.2955-0.0968 0.25751-0.11307 0.62771-0.3547 0.7565-0.19285 0.11261-0.49876 0.03214-0.75589 0.04825h-0.0488c-0.22537-0.03222-0.32141 0.04833-0.30592 0.28973 0.0163 0.51502 0 1.0301 0.0163 1.5291 0 0.27362-0.14483 0.65993 0.0805 0.82086 0.19362 0.14483 0.54755 0.03222 0.83721 0.04825 0.22537 0.01611 0.25712-0.09658 0.25712-0.28973-0.0155-0.32187 0-0.64382 0-0.96569 0-0.20926 0.0643-0.28973 0.27416-0.27362 0.46624 0.01611 0.93324 0 1.4002 0h4.0884c0.45075 0 0.46624-0.08047 0.46624 0.48288v0.82086c0 0.16094 0.0488 0.2414 0.22537 0.2253 0.24163 0 0.48327-0.01603 0.72491 0 0.17657 0 0.25712-0.06436 0.25712-0.2414-0.0325-0.38631-0.0325-0.7565-0.0325-1.1267zm-5.9874-1.3681c0.51503-1.6096 1.0788-3.2031 1.6101-4.7965h0.096c0.53128 1.5774 1.0788 3.1708 1.6256 4.7965h-3.3318z"/>
   <path d="m110.79 43.289c-0.14483-1.4969-0.88523-2.6236-2.2855-3.2514-0.59557-0.27362-1.2229-0.3702-1.8673-0.3702-2.5589 0-4.6027 2.0603-3.9591 5.0541 0.40195 1.8832 1.9796 3.0582 4.0079 3.0582 1.8347 0 3.2512-0.94966 3.8631-2.5431 0.24087-0.62771 0.30592-1.2876 0.24087-1.9476zm-1.5931 1.352c-0.40272 1.3199-1.449 2.012-2.8648 1.8832-1.1594-0.09658-2.1089-1.0784-2.27-2.3178-0.0163-0.17704-0.0163-0.35409-0.0318-0.41853 0.0155-1.5774 0.96576-2.7202 2.2855-2.865 1.6256-0.16094 2.9128 0.93355 3.0096 2.5753 0.0325 0.38631-0.0163 0.77261-0.12857 1.1428z"/>
   <path d="m119.55 29.382c-0.4825-1.6739-2.0121-2.7202-3.6695-2.7202-1.3848 0-2.3823 0.30584-3.187 1.1107-1.2074 1.1911-1.449 2.6557-0.9983 4.2171 0.43448 1.5129 1.5133 2.4304 3.0747 2.7041 3.3961 0.59549 5.6815-2.2052 4.78-5.3116zm-1.4165 2.2534c-0.40195 1.2716-1.4483 1.9798-2.7842 1.8671-1.1911-0.09658-2.1732-1.0462-2.3343-2.3017-0.0155-0.17704-0.0318-0.35409-0.048-0.53113 0.0325-1.1589 0.48327-2.0925 1.5776-2.5754 1.5451-0.69207 3.2992 0.22537 3.6377 1.8832 0.12856 0.54724 0.12856 1.1106-0.0488 1.6578z"/>
   <path d="m101.57 30.702c0-1.9153-1.0626-3.3962-2.8168-3.8951-0.65985-0.19315-1.336-0.22537-1.9958-0.11269-1.2074 0.17704-2.1732 0.7404-2.833 1.8027-1.2716 2.0763-0.61168 5.7461 2.9136 6.229 2.9616 0.40242 4.7963-1.7544 4.732-4.0239zm-1.4645-0.01611c-0.0163 1.3521-0.77292 2.4143-1.916 2.7363-1.6411 0.45067-3.2187-0.62771-3.3635-2.35-0.04879-0.49899-0.01626-0.9818 0.16109-1.4647 0.41822-1.1106 1.4165-1.7866 2.6069-1.7223 1.1911 0.06436 2.1252 0.83697 2.4148 1.9959 0.0643 0.27362 0.12857 0.54724 0.0968 0.80476z"/>
   <path d="m130.54 47.152c-0.90149-2.1568-1.8192-4.3137-2.7362-6.4544-0.11308-0.25759-0.14483-0.61168-0.3702-0.7565-0.22537-0.1449-0.56382-0.01611-0.85347-0.06444-0.33767-0.04825-0.49876 0.08055-0.64359 0.40242-0.96577 2.3017-1.9478 4.6034-2.929 6.9051-0.0488 0.11261-0.14561 0.22529-0.0806 0.40234 0.3702 0 0.7404-0.01611 1.1261 0 0.24164 0.01611 0.33845-0.08047 0.41899-0.30584 0.14483-0.38623 0.30592-0.77254 0.45075-1.1588 0.0805-0.20926 0.17658-0.30584 0.41821-0.28973 0.94951 0.01611 1.899 0.01611 2.833 0 0.22538 0 0.33767 0.06436 0.41822 0.28973 0.14483 0.40242 0.32218 0.80476 0.48327 1.2072 0.048 0.11269 0.0643 0.25751 0.24086 0.25751h1.4002c-0.0798-0.20926-0.12856-0.32187-0.17658-0.43456zm-5.0542-2.4788c0.41821-1.0623 0.8372-2.0924 1.2392-3.1225h0.0968c0.40273 1.0301 0.80468 2.0603 1.2237 3.1386-0.86973-0.01611-1.6907-0.01611-2.5596-0.01611z"/>
   <path d="m98.573 40.038c-0.14483-0.03222-0.27339-0.08055-0.41822-0.09658-0.9983-0.1449-2.0121-0.04833-3.0259-0.06444-0.33844-0.01611-0.33844 0-0.33844 0.35409v3.5089 3.3158c0 0.6116-0.08055 0.51502 0.54755 0.51502h0.43448c0.3702 0 0.3702 0 0.3702-0.35409v-2.2534c0-0.59557 0-0.59557 0.5793-0.59557 0.64359 0 1.2879 0 1.8998-0.19315 0.99752-0.32187 1.5125-1.0462 1.5125-2.1407-0.0318-1.014-0.56304-1.6901-1.5613-1.9958zm0.12856 2.3821c-0.09604 0.33806-0.32141 0.56335-0.62732 0.67604-0.57931 0.2253-1.2074 0.14483-1.803 0.14483-0.14483 0-0.12856-0.11261-0.12856-0.20918v-0.91752-0.86911c0-0.16101 0.01626-0.27362 0.22537-0.25759 0.46701 0.01611 0.93324-0.03214 1.4002 0.04833 0.75666 0.14483 1.1269 0.69215 0.93324 1.3842z"/>
  </g>
 </g>
 <defs>
  <clipPath id="clip0_863_520">
   <rect width="147.33" height="60" fill="#fff"/>
  </clipPath>
 </defs>
</svg>
