<svg width="172" height="65" viewBox="0 0 172 65" fill="none" xmlns="http://www.w3.org/2000/svg">
<g clip-path="url(#clip0_2738_5649)">
<path d="M14.35 2.37012H9.04004V7.68012H14.35V2.37012Z" fill="#76BC21"/>
<path d="M5.24994 11.5801H-0.0600586V16.8901H5.24994V11.5801Z" fill="#76BC21"/>
<path d="M5.24994 2.37012H-0.0600586V7.68012H5.24994V2.37012Z" fill="#76BC21"/>
<path d="M63.88 56.1099C63.6903 56.026 63.4807 55.9974 63.2754 56.0275C63.0702 56.0576 62.8776 56.1451 62.72 56.2799C62.37 56.4999 62.72 57.0599 63.05 56.8399C63.15 56.7699 63.36 56.6099 63.49 56.6499C63.62 56.6899 63.49 56.8899 63.49 57.0099C63.3411 57.3425 63.1459 57.6522 62.91 57.9299C62.4596 58.4671 61.9717 58.9717 61.45 59.4399C60.3952 60.4146 59.2386 61.2729 58 61.9999C57.941 62.0503 57.9016 62.1199 57.8888 62.1964C57.876 62.273 57.8906 62.3515 57.93 62.4184C57.9694 62.4853 58.0311 62.5361 58.1042 62.562C58.1774 62.5878 58.2573 62.5871 58.33 62.5599C59.8975 61.6399 61.3366 60.5168 62.61 59.2199C63.2552 58.6399 63.767 57.9268 64.11 57.1299C64.212 56.9634 64.245 56.7637 64.202 56.5732C64.1591 56.3828 64.0435 56.2165 63.88 56.1099Z" fill="#4A4F54"/>
<path d="M130.51 52.16C130.052 52.1281 129.592 52.1928 129.16 52.35C128.556 52.5439 127.975 52.8056 127.43 53.13C126.277 53.7769 125.339 54.7467 124.73 55.92C124.49 56.44 124.46 57.08 125.05 57.37C125.625 57.5551 126.245 57.5551 126.82 57.37C127.23 57.29 127.06 56.66 126.65 56.74C126.265 56.8399 125.863 56.8604 125.47 56.8C125.05 56.69 125.23 56.31 125.38 56.02C125.903 55.1087 126.646 54.3422 127.54 53.79C128.323 53.2488 129.225 52.9056 130.17 52.79C130.266 52.7795 130.364 52.7795 130.46 52.79L130.4 52.92C130.347 53.0079 130.286 53.0914 130.22 53.17C130.06 53.3653 129.886 53.5491 129.7 53.72C128.822 54.5886 127.704 55.1739 126.49 55.4C126.08 55.48 126.26 56.1 126.67 56.03C127.99 55.7706 129.204 55.127 130.16 54.18C130.612 53.8399 130.959 53.3788 131.16 52.85C131.21 52.45 130.89 52.2 130.51 52.16Z" fill="#4A4F54"/>
<path d="M137.28 52.61C137.127 52.4196 136.91 52.2916 136.67 52.25V52.19C136.652 51.6642 136.485 51.1543 136.19 50.719C135.895 50.2838 135.482 49.9409 135 49.73L135.78 49.59C136.32 49.5 136.86 49.43 137.41 49.39C137.96 49.35 138.47 49.32 139 49.32C139.26 49.32 139.52 49.32 139.77 49.32C140.18 49.32 139.99 49.65 139.77 49.87C139.55 50.09 139.95 50.65 140.23 50.33C140.51 50.01 140.94 49.15 140.29 48.79C139.956 48.6619 139.595 48.6173 139.24 48.66C138.83 48.66 138.43 48.66 138.02 48.66C137.226 48.6933 136.434 48.7768 135.65 48.91C135.25 48.97 134.85 49.05 134.46 49.14C134.154 49.1723 133.872 49.3187 133.67 49.55C133.51 49.77 133.73 50.01 133.95 50.04C134.483 50.1012 134.977 50.3501 135.344 50.7422C135.71 51.1342 135.925 51.6439 135.95 52.18C135.534 52.2429 135.125 52.3467 134.73 52.49C133.237 53.0029 131.945 53.9762 131.04 55.27C130.68 55.79 130.21 56.64 130.77 57.18C131.062 57.3715 131.392 57.4967 131.738 57.5468C132.083 57.5969 132.436 57.5707 132.77 57.47C134.323 57.2174 135.729 56.4023 136.72 55.18C137.34 54.53 137.93 53.44 137.28 52.61ZM136.91 53.52C136.85 53.958 136.662 54.3686 136.37 54.7C135.459 55.8755 134.13 56.656 132.66 56.88C132.216 57.0092 131.74 56.9737 131.32 56.78C130.99 56.51 131.57 55.78 131.74 55.54C132.53 54.4689 133.619 53.6549 134.87 53.2C135.193 53.0737 135.528 52.9799 135.87 52.92C135.761 53.2851 135.581 53.625 135.34 53.92C135.377 53.858 135.393 53.7855 135.385 53.7136C135.377 53.6417 135.345 53.5744 135.295 53.5222C135.245 53.4699 135.18 53.4355 135.108 53.4243C135.037 53.4131 134.964 53.4256 134.9 53.46C134.172 53.8653 133.634 54.5406 133.4 55.34C133.386 55.3953 133.387 55.4531 133.402 55.508C133.417 55.5629 133.447 55.6129 133.487 55.6532C133.527 55.6934 133.577 55.7226 133.632 55.7378C133.687 55.753 133.745 55.7538 133.8 55.74C134.452 55.5275 135.043 55.1599 135.522 54.6687C136.001 54.1776 136.354 53.5775 136.55 52.92H136.61H136.67L136.72 52.98L136.83 53.15C136.888 53.2643 136.916 53.3918 136.91 53.52ZM135.35 53.91C135.095 54.2138 134.795 54.4768 134.46 54.69C134.675 54.4037 134.948 54.1653 135.26 53.99C135.296 53.9714 135.327 53.9439 135.35 53.91Z" fill="#4A4F54"/>
<path d="M124.21 52.1501C123.657 52.1419 123.108 52.251 122.6 52.4701C121.887 52.7445 121.214 53.1145 120.6 53.5701C119.996 54.0081 119.457 54.53 119 55.1201C118.65 55.5801 118.19 56.2501 118.38 56.8601C118.57 57.4701 119.26 57.5101 119.77 57.5101C120.75 57.4651 121.72 57.2833 122.65 56.9701C123.05 56.8501 122.88 56.2201 122.48 56.3401C121.858 56.5336 121.223 56.684 120.58 56.7901C120.162 56.8552 119.737 56.8552 119.32 56.7901C119.06 56.7901 118.95 56.7001 119 56.4301C119.128 56.0038 119.354 55.6133 119.66 55.2901C120.315 54.4877 121.133 53.8333 122.06 53.3701C122.71 52.9722 123.458 52.7612 124.22 52.7601H124.31C124.36 52.7601 124.38 52.7601 124.31 52.9101C124.211 53.049 124.101 53.1794 123.98 53.3001C123.775 53.5006 123.547 53.6752 123.3 53.8201C123.266 53.7671 123.218 53.7243 123.162 53.6961C123.106 53.6679 123.043 53.6555 122.98 53.6601C122.674 53.7204 122.388 53.8581 122.15 54.0601C122.081 54.0892 122.022 54.1379 121.981 54.2001C121.94 54.2624 121.918 54.3354 121.918 54.4101C121.918 54.4848 121.94 54.5578 121.981 54.62C122.022 54.6823 122.081 54.731 122.15 54.7601C122.5 54.9201 122.96 54.7001 123.28 54.5501C123.651 54.3752 123.989 54.1385 124.28 53.8501C124.615 53.6092 124.85 53.2532 124.94 52.8501C124.923 52.6649 124.84 52.4921 124.706 52.3634C124.572 52.2348 124.396 52.159 124.21 52.1501Z" fill="#4A4F54"/>
<path d="M51.72 57C52.13 56.92 51.96 56.29 51.55 56.37C50.6691 56.5746 49.7726 56.7051 48.87 56.76C48.6819 56.7686 48.4935 56.7518 48.31 56.71C48.2943 56.6375 48.2943 56.5625 48.31 56.49C48.3506 56.3266 48.4111 56.1688 48.49 56.02C49.1161 56.1126 49.7555 56.0472 50.35 55.83C51.1331 55.6368 51.8727 55.2975 52.53 54.83C53.1602 54.3967 53.6946 53.8385 54.1 53.19C54.162 53.093 54.1972 52.9813 54.2019 52.8663C54.2066 52.7513 54.1806 52.6371 54.1267 52.5354C54.0728 52.4336 53.9929 52.3481 53.895 52.2874C53.7972 52.2267 53.685 52.1931 53.57 52.19C52.9272 52.1756 52.29 52.3127 51.71 52.59C50.8492 52.9231 50.0512 53.3999 49.35 54C48.7322 54.5215 48.2197 55.1562 47.84 55.87C47.59 56.36 47.45 57.14 48.12 57.36C48.7798 57.4947 49.4601 57.4947 50.12 57.36C50.63 57.19 51.18 57.09 51.72 57ZM49.38 54.86C50.3496 53.8439 51.605 53.1465 52.98 52.86C53.1625 52.8359 53.3474 52.8359 53.53 52.86C53.4595 52.9587 53.396 53.0623 53.34 53.17C53.2379 53.3033 53.1277 53.4302 53.01 53.55C52.7789 53.7895 52.5353 54.0165 52.28 54.23C51.6893 54.6975 51.0084 55.0379 50.28 55.23C49.8044 55.4006 49.305 55.4951 48.8 55.51C49 55.2 49.22 55 49.38 54.84V54.86Z" fill="#4A4F54"/>
<path d="M47.3 53.3499C47.0955 53.5504 46.8671 53.7251 46.62 53.8699C46.586 53.8169 46.5383 53.7741 46.482 53.7459C46.4257 53.7178 46.3628 53.7053 46.3 53.7099C45.9938 53.7703 45.708 53.908 45.47 54.1099C45.4012 54.139 45.3425 54.1877 45.3013 54.25C45.26 54.3122 45.238 54.3852 45.238 54.4599C45.238 54.5346 45.26 54.6076 45.3013 54.6699C45.3425 54.7321 45.4012 54.7808 45.47 54.8099C45.82 54.9699 46.28 54.7499 46.6 54.5999C46.9707 54.425 47.3088 54.1883 47.6 53.8999C47.9355 53.659 48.1704 53.303 48.26 52.8999C48.2601 52.7971 48.2395 52.6953 48.1996 52.6006C48.1596 52.5058 48.1011 52.42 48.0275 52.3482C47.9538 52.2765 47.8666 52.2202 47.7708 52.1827C47.6751 52.1452 47.5728 52.1272 47.47 52.1299C46.9167 52.1208 46.3678 52.2299 45.86 52.4499C45.1466 52.7243 44.4738 53.0944 43.86 53.5499C43.2734 53.9915 42.7517 54.5133 42.31 55.0999C41.96 55.5599 41.5 56.2299 41.69 56.8399C41.88 57.4499 42.57 57.4899 43.08 57.4899C44.0716 57.4648 45.0546 57.2998 46 56.9999C46.4 56.8799 46.23 56.2499 45.83 56.3699C45.2078 56.5635 44.573 56.7138 43.93 56.8199C43.5125 56.8848 43.0875 56.8848 42.67 56.8199C42.4 56.8199 42.3 56.7299 42.35 56.4599C42.4765 56.0381 42.699 55.6513 43 55.3299C43.6553 54.5275 44.4733 53.8731 45.4 53.4099C46.0613 53.012 46.8182 52.8011 47.59 52.7999H47.65C47.72 52.9199 47.73 52.7999 47.65 52.9499C47.5451 53.0931 47.428 53.2269 47.3 53.3499Z" fill="#4A4F54"/>
<path d="M112.2 51.8C110.95 51.7 109.2 52.2 108.83 53.55C108.733 53.8952 108.724 54.2592 108.805 54.6087C108.885 54.9582 109.052 55.2818 109.29 55.55C109.466 55.7574 109.675 55.9333 109.91 56.07L109.77 56.23C108.91 56.3 108.04 56.23 107.18 56.31C106.77 56.31 106.77 57 107.18 56.96C107.87 56.89 108.59 56.96 109.29 56.96C109.16 57.23 109.19 57.6 109.55 57.66C109.972 57.6508 110.386 57.5447 110.76 57.35L111.35 57.15C111.53 57.15 111.76 57.09 111.89 56.94C111.968 56.8597 112.012 56.752 112.012 56.64C112.012 56.5279 111.968 56.4202 111.89 56.34C112.421 56.0964 112.887 55.733 113.253 55.2784C113.62 54.8237 113.875 54.2902 114 53.72C114.062 53.4602 114.059 53.1892 113.991 52.931C113.923 52.6728 113.792 52.4354 113.61 52.24C113.206 51.9329 112.707 51.7772 112.2 51.8ZM112.77 54.8C112.317 55.289 111.769 55.6803 111.16 55.95L111.02 55.89L111.32 55.56C111.86 55.01 112.41 54.48 112.97 53.95C113.28 53.66 112.82 53.2 112.51 53.49C111.95 54.02 111.4 54.55 110.86 55.11L110.38 55.61C110.151 55.5127 109.946 55.3651 109.782 55.1782C109.618 54.9912 109.497 54.7697 109.43 54.53C109.18 53.53 110.01 52.9 110.86 52.63C111.313 52.4932 111.789 52.4456 112.26 52.49C112.555 52.4937 112.844 52.5729 113.1 52.72C113.74 53.18 113.18 54.32 112.77 54.76V54.8Z" fill="#4A4F54"/>
<path d="M144.71 52.4299C144.613 52.2842 144.483 52.1641 144.33 52.0799C143.814 51.8468 143.256 51.7209 142.69 51.7099C141.792 51.6127 140.884 51.7152 140.03 52.0099C139.63 52.1097 139.274 52.3397 139.019 52.6637C138.764 52.9877 138.623 53.3874 138.62 53.7999C138.69 54.3999 139.19 54.6799 139.69 54.9099C140.147 55.1165 140.614 55.3001 141.09 55.4599C140.831 55.6769 140.584 55.9072 140.35 56.1499H140C139.252 56.1183 138.502 56.1518 137.76 56.2499C137.34 56.3199 137.52 56.9399 137.93 56.8799C138.547 56.8067 139.169 56.7833 139.79 56.8099C139.781 56.8561 139.781 56.9037 139.79 56.9499C139.79 57.4499 140.33 57.5099 140.68 57.4099C141.296 57.2439 141.901 57.0367 142.49 56.7899C142.81 56.6599 143.12 56.5299 143.43 56.3799C143.74 56.2299 143.89 56.0699 143.72 55.7999C143.622 55.6727 143.485 55.5813 143.33 55.5399C143.884 55.1517 144.334 54.6331 144.64 54.0299C144.765 53.7391 144.833 53.4266 144.84 53.1099L145.16 52.8499C145.49 52.6199 145 52.1599 144.71 52.4299ZM139.4 54.0699C138.96 53.7299 139.4 53.0699 139.81 52.8399C140.345 52.5613 140.937 52.4075 141.54 52.3899C142.121 52.3447 142.706 52.375 143.28 52.4799C143.55 52.5399 144.02 52.5899 144.17 52.8599L141.63 54.9999C141.21 54.8599 140.79 54.7199 140.38 54.5499C140.032 54.4365 139.703 54.2749 139.4 54.0699ZM141.76 55.7399H141.9C141.77 55.8173 141.633 55.881 141.49 55.9299L141.76 55.7399ZM143.43 54.6199C143.17 54.8785 142.893 55.119 142.6 55.3399L142.33 55.2399C142.89 54.7599 143.47 54.2399 144.05 53.8199C143.896 54.1234 143.685 54.3949 143.43 54.6199Z" fill="#4A4F54"/>
<path d="M105.75 56.5201C105.613 56.5639 105.472 56.5974 105.33 56.6201H105.21C105.323 56.316 105.467 56.0244 105.64 55.7501C106.209 54.8016 106.851 53.8988 107.56 53.0501C107.7 52.8801 107.68 52.5501 107.42 52.5001C107.154 52.4721 106.886 52.5355 106.66 52.6801L106.72 52.6201C107.03 52.3301 106.57 51.8801 106.26 52.1601C105.571 52.8251 104.933 53.5404 104.35 54.3001C103.469 54.8556 102.639 55.4881 101.87 56.1901C101.61 56.4601 101.09 56.9201 101.32 57.3401C101.55 57.7601 102.11 57.5601 102.42 57.3401C103.189 56.7006 103.884 55.976 104.49 55.1801L104.78 54.8201L105.84 54.0801L106.11 53.8901C105.626 54.5202 105.194 55.1891 104.82 55.8901C104.67 56.1901 104.42 56.6201 104.54 56.9701C104.72 57.5101 105.54 57.2501 105.92 57.1401C106.3 57.0301 106.15 56.4001 105.75 56.5201Z" fill="#4A4F54"/>
<path d="M27.73 51.8C26.48 51.7 24.73 52.2 24.36 53.55C24.2601 53.8949 24.2499 54.2597 24.3304 54.6096C24.4109 54.9596 24.5794 55.2833 24.82 55.55C24.9954 55.7574 25.2051 55.9333 25.44 56.07L25.3 56.23C24.44 56.3 23.57 56.23 22.71 56.31C22.3 56.31 22.3 57 22.71 56.96C23.4 56.89 24.12 56.96 24.82 56.96C24.69 57.23 24.72 57.6 25.08 57.66C25.5017 57.6508 25.9158 57.5447 26.29 57.35L26.88 57.15C27.06 57.15 27.29 57.09 27.42 56.94C27.4918 56.8533 27.5268 56.7419 27.5175 56.6297C27.5082 56.5176 27.4552 56.4135 27.37 56.34C27.8996 56.1029 28.3674 55.7467 28.7368 55.2992C29.1063 54.8517 29.3674 54.3249 29.5 53.76C29.562 53.5002 29.5588 53.2292 29.4908 52.971C29.4227 52.7128 29.2919 52.4754 29.11 52.28C28.7193 51.9652 28.2316 51.7956 27.73 51.8ZM28.3 54.8C27.8473 55.289 27.2994 55.6803 26.69 55.95L26.55 55.89L26.85 55.56C27.39 55.01 27.94 54.48 28.5 53.95C28.81 53.66 28.35 53.2 28.04 53.49C27.48 54.02 26.93 54.55 26.39 55.11L25.91 55.61C25.6838 55.5038 25.4845 55.3479 25.3269 55.154C25.1693 54.9601 25.0576 54.7331 25 54.49C24.75 53.49 25.58 52.86 26.43 52.59C26.8832 52.4532 27.3586 52.4056 27.83 52.45C28.125 52.4537 28.4142 52.5329 28.67 52.68C29.27 53.18 28.71 54.32 28.3 54.76V54.8Z" fill="#4A4F54"/>
<path d="M21.28 56.5201C21.1427 56.5639 21.0023 56.5974 20.86 56.6201H20.74C20.8529 56.316 20.997 56.0244 21.17 55.7501C21.7389 54.8016 22.3809 53.8988 23.09 53.0501C23.23 52.8801 23.21 52.5501 22.95 52.5001C22.6836 52.4721 22.4155 52.5355 22.19 52.6801L22.25 52.6201C22.56 52.3301 22.1 51.8801 21.79 52.1601C21.1012 52.8251 20.4628 53.5404 19.88 54.3001C18.9988 54.8588 18.1688 55.4946 17.4 56.2001C17.14 56.4701 16.62 56.9301 16.85 57.3501C17.08 57.7701 17.64 57.5701 17.95 57.3501C18.7141 56.7001 19.4019 55.9654 20 55.1601L20.29 54.8001L21.35 54.0601L21.62 53.8701C21.1358 54.5002 20.7043 55.1691 20.33 55.8701C20.18 56.1701 19.93 56.6001 20.05 56.9501C20.23 57.4901 21.05 57.2301 21.43 57.1201C21.81 57.0101 21.68 56.4001 21.28 56.5201Z" fill="#4A4F54"/>
<path d="M101.72 54.5701L102.07 54.2101C102.25 54.0401 102.43 53.8701 102.6 53.6901C102.631 53.6512 102.654 53.6072 102.67 53.5601L102.73 53.4901C102.768 53.4488 102.795 53.3985 102.808 53.344C102.821 53.2894 102.82 53.2324 102.805 53.1784C102.79 53.1243 102.761 53.075 102.722 53.0351C102.683 52.9951 102.634 52.9659 102.58 52.9501C102.566 52.6561 102.45 52.3763 102.25 52.1601C101.997 51.9157 101.688 51.737 101.349 51.6394C101.011 51.5418 100.654 51.5283 100.31 51.6001C99.5508 51.7936 98.8591 52.1913 98.31 52.7501C97.6854 53.2394 97.2278 53.9101 97 54.6701C96.948 54.8333 96.9339 55.0061 96.9586 55.1756C96.9833 55.345 97.0461 55.5067 97.1425 55.6483C97.2388 55.7899 97.366 55.9077 97.5146 55.9929C97.6631 56.0781 97.8291 56.1284 98 56.1401C98.4336 56.1437 98.8631 56.055 99.2599 55.8801L99.78 55.6601L97.69 57.8801L93.58 58.2301C92.92 58.2901 92.26 58.3301 91.58 58.4301C91.16 58.4901 90.58 58.5501 90.58 59.0801C90.6035 59.3644 90.6675 59.6438 90.77 59.9101C90.88 60.3401 90.96 60.7801 91.04 61.2201C91.19 62.0501 91.32 62.8701 91.43 63.7101C91.43 64.0101 91.51 64.3501 91.81 64.5101C92.11 64.6701 92.48 64.3701 92.72 64.1201L94.35 62.4001L98 58.5001H98.13C98.1814 58.4949 98.2311 58.4784 98.2754 58.4518C98.3197 58.4251 98.3576 58.389 98.3863 58.346C98.415 58.3029 98.4338 58.2541 98.4413 58.2029C98.4489 58.1517 98.445 58.0995 98.4299 58.0501L98.5399 57.9301C99.6099 56.8001 100.66 55.6801 101.72 54.5701ZM97.66 55.3501C97.31 54.9901 97.8 54.2401 98.03 53.9301C98.4067 53.4499 98.8593 53.0344 99.3699 52.7001C99.8155 52.358 100.369 52.1876 100.93 52.2201C101.37 52.2701 101.93 52.5301 101.93 53.0501C101.899 53.2906 101.799 53.5167 101.64 53.7001L101.55 53.8001C101.19 54.1199 100.798 54.4014 100.38 54.6401C100.077 54.7366 99.7524 54.7366 99.45 54.6401C99.24 54.6401 99.13 54.4801 99.2 54.2501C99.2497 54.1093 99.3302 53.9815 99.4358 53.8759C99.5413 53.7703 99.6692 53.6898 99.81 53.6401C100.19 53.4701 99.86 52.9101 99.4799 53.0801C99.1428 53.1941 98.8643 53.4368 98.7051 53.7551C98.5459 54.0735 98.5189 54.4419 98.63 54.7801C98.724 54.9724 98.8836 55.1248 99.08 55.2101C98.68 55.4201 98 55.6901 97.66 55.3501ZM95.3699 60.3501L92.21 63.7101L92.08 63.8501C92.08 63.8501 92.08 63.8501 92.08 63.7901C92.08 63.7301 92.08 63.5601 92.08 63.4501C92.08 63.1101 91.99 62.7701 91.94 62.4501C91.81 61.6601 91.68 60.8601 91.51 60.0701C91.51 59.8601 91.23 59.3401 91.4 59.1601C91.57 58.9801 92.4 59.0201 92.65 59.0001L93.7599 58.9001L97.1 58.6101C96.48 59.1701 95.9299 59.7601 95.3699 60.3401V60.3501Z" fill="#4A4F54"/>
<path d="M14.4 56.28C13.659 56.2066 12.9146 56.1732 12.17 56.18H9.93996C11.17 54.8 12.39 53.4 13.63 52.01C15.13 50.4839 16.4703 48.8085 17.63 47.01C17.96 46.45 18.42 45.56 17.73 45.08C17.04 44.6 16 45 15.25 45.29C14.3534 45.6407 13.5036 46.1008 12.72 46.66C12.3696 46.9263 12.0357 47.2135 11.72 47.52C11.47 47.75 11.15 47.98 11.16 48.34C11.17 48.7 11.83 48.76 11.81 48.34C11.81 48.18 12.54 47.66 12.65 47.57C12.9699 47.3151 13.3038 47.078 13.65 46.86H13.74C10.5703 49.7595 7.60017 52.87 4.84996 56.17H0.499966C0.349966 56.17 0.309965 56.23 0.209965 56.38C0.173851 56.4331 0.154541 56.4958 0.154541 56.56C0.154541 56.6242 0.173851 56.687 0.209965 56.74C0.569491 57.2907 1.00744 57.7859 1.50996 58.21C1.57353 58.255 1.65095 58.2761 1.72853 58.2695C1.80612 58.2629 1.87888 58.2291 1.93394 58.174C1.989 58.119 2.02282 58.0462 2.02941 57.9686C2.036 57.891 2.01495 57.8136 1.96997 57.75C1.6909 57.5241 1.43316 57.2731 1.19997 57L1.05997 56.84L0.979965 56.74L9.61996 56.82C10.95 56.82 12.28 56.82 13.62 56.82C13.9282 56.8302 14.2356 56.8603 14.54 56.91C14.96 56.97 15.06 56.97 14.69 57.25C14.4257 57.4248 14.1482 57.5786 13.86 57.71C13.48 57.88 13.81 58.44 14.19 58.27C14.73 58.01 16.08 57.46 15.68 56.66C15.45 56.3 14.78 56.33 14.4 56.28ZM15.53 46C15.5791 45.9584 15.6141 45.9025 15.63 45.84L15.78 45.78C16.1674 45.617 16.5802 45.5222 17 45.5C17.75 45.5 17.35 46.3 17.13 46.67C16.6828 47.4175 16.1743 48.1266 15.61 48.79C13.55 51.31 11.31 53.72 9.13997 56.14H5.67997C8.71162 52.5243 12.0037 49.1353 15.53 46Z" fill="#4A4F54"/>
<path d="M159.45 43C156.645 47.0113 153.642 50.8795 150.45 54.59C150.17 54.9 150.63 55.36 150.91 55.05C152.26 53.54 153.54 51.97 154.79 50.38C154.84 50.3918 154.892 50.3886 154.94 50.3708C154.988 50.353 155.03 50.3214 155.06 50.28C156.878 48.0583 158.548 45.7199 160.06 43.28C160.23 43 159.69 42.68 159.45 43Z" fill="#4A4F54"/>
<path d="M149.1 56.9001C148.78 56.5801 148.34 57.1101 148.64 57.4101C148.94 57.7101 149.41 57.2001 149.1 56.9001Z" fill="#4A4F54"/>
<path d="M59.53 56.13C58.6662 56.4121 57.7743 56.5999 56.87 56.69C56.4806 56.7199 56.0894 56.7199 55.7 56.69C55.594 56.6909 55.4894 56.6659 55.3952 56.6171C55.3011 56.5683 55.2204 56.4972 55.16 56.41C58.2922 54.557 61.2806 52.4711 64.1 50.17C64.43 49.9 63.96 49.44 63.64 49.71C60.9343 51.922 58.0662 53.9276 55.06 55.71C55.1465 55.2171 55.3338 54.7473 55.61 54.33C56.0114 53.6806 56.5508 53.1275 57.19 52.71C57.54 52.48 57.19 51.92 56.86 52.15C55.6838 52.886 54.8299 54.04 54.47 55.38C54.4194 55.6131 54.3993 55.8517 54.41 56.09C52.66 57.09 50.86 58.09 49.02 58.9C48.64 59.08 49.02 59.64 49.35 59.46C51.14 58.63 52.88 57.71 54.59 56.73C54.6564 56.8545 54.7484 56.9636 54.86 57.05C55.5058 57.3885 56.2545 57.4741 56.96 57.29C57.8917 57.197 58.8105 57.0025 59.7 56.71C60.1 56.62 59.93 56 59.53 56.13Z" fill="#4A4F54"/>
<path d="M89.24 51.7801H89.18C88.28 52.4701 87.39 53.1801 86.53 53.9101L85.53 54.7101L85.06 55.0701C85.6033 54.2486 86.2084 53.4696 86.87 52.7401C87.15 52.4301 86.69 51.9701 86.41 52.2801C85.4124 53.3785 84.5372 54.5823 83.8 55.8701C83.6 55.9901 83.4 56.1101 83.19 56.2101C82.8025 56.4201 82.3935 56.5877 81.97 56.7101C81.8072 56.7569 81.6393 56.7838 81.47 56.7901H81.34C81.3278 56.5595 81.3725 56.3294 81.47 56.1201C81.6014 55.772 81.7655 55.4372 81.96 55.1201C82.1675 54.7457 82.4085 54.3909 82.68 54.0601L83.48 53.4101C83.78 53.1701 83.4 52.7401 83.09 52.9001C83.0947 52.8369 83.0947 52.7733 83.09 52.7101C83.17 51.9501 82.27 51.8201 81.73 51.9801C80.9878 52.2615 80.3082 52.6863 79.73 53.2301C79.0824 53.7544 78.5043 54.3593 78.01 55.0301L77.66 55.5601L76.25 56.0001L75.53 56.2301L75.18 56.3401H75.06L75.16 56.0701C75.23 55.9001 75.32 55.7301 75.41 55.5601C75.6398 55.2443 75.775 54.8698 75.8 54.4801C75.8 54.43 75.7886 54.3805 75.7666 54.3355C75.7446 54.2904 75.7126 54.251 75.6731 54.2201C75.6336 54.1893 75.5875 54.1678 75.5385 54.1574C75.4894 54.147 75.4387 54.1479 75.39 54.1601C74.9822 54.2916 74.595 54.4801 74.24 54.7201C74.5736 54.3274 74.8714 53.9057 75.13 53.4601C77.2002 52.1891 79.1338 50.7079 80.9 49.0401C81.2 48.7501 80.74 48.2901 80.44 48.5801C78.9639 49.9715 77.3677 51.2297 75.67 52.3401C76.38 51.4901 77.09 50.6401 77.77 49.7601C78.15 49.2701 78.53 48.7601 78.88 48.2601C79.12 47.8901 79.52 47.3201 79.03 46.9701C78.9687 46.9338 78.8971 46.9191 78.8264 46.9281C78.7558 46.9372 78.6902 46.9696 78.64 47.0201C78.195 47.4566 77.7743 47.9173 77.38 48.4001C77.2 48.6301 77.03 48.8801 76.86 49.1201C76.655 49.3602 76.5079 49.6441 76.43 49.9501C76.4166 50.0075 76.4188 50.0675 76.4364 50.1237C76.4539 50.18 76.4863 50.2306 76.53 50.2701C75.72 51.2701 74.88 52.2701 74.03 53.2701C73.4494 53.5899 72.9032 53.9686 72.4 54.4001C71.7256 54.9312 71.1149 55.5386 70.58 56.2101C70.4003 56.4023 70.2639 56.6307 70.18 56.8801C70.1579 56.9495 70.1542 57.0236 70.1693 57.0949C70.1844 57.1662 70.2178 57.2323 70.2662 57.2868C70.3147 57.3413 70.3764 57.3822 70.4455 57.4056C70.5145 57.429 70.5885 57.434 70.66 57.4201C71.112 57.299 71.5364 57.0919 71.91 56.8101C72.2799 56.5661 72.6339 56.2989 72.97 56.0101C73.28 55.7301 73.57 55.4401 73.85 55.1401C73.848 55.2317 73.8801 55.3208 73.94 55.3901C74.0028 55.4477 74.0848 55.4797 74.17 55.4797C74.2552 55.4797 74.3373 55.4477 74.4 55.3901C74.5799 55.2519 74.7705 55.1281 74.97 55.0201V55.0901C74.8376 55.3083 74.7206 55.5355 74.62 55.7701C74.5273 55.9832 74.4537 56.204 74.4 56.4301C74.3855 56.4956 74.3852 56.5634 74.3991 56.629C74.413 56.6946 74.4408 56.7565 74.4805 56.8105C74.5203 56.8645 74.5712 56.9094 74.6298 56.9421C74.6883 56.9748 74.7532 56.9946 74.82 57.0001C75.0768 57.0173 75.334 56.9728 75.57 56.8701L76.36 56.6201L77.36 56.3101C77.2902 56.5314 77.2902 56.7688 77.36 56.9901C77.61 57.6601 78.43 57.3601 78.87 57.1001C79.6145 56.5975 80.3199 56.0392 80.98 55.4301L81.15 55.2901C81 55.6098 80.886 55.9452 80.81 56.2901C80.7 56.7401 80.7 57.2901 81.25 57.4401C81.9718 57.4897 82.6913 57.3151 83.31 56.9401C83.2767 57.0088 83.269 57.0872 83.2884 57.1611C83.3078 57.2349 83.353 57.2994 83.4158 57.3429C83.4786 57.3864 83.5548 57.406 83.6308 57.3981C83.7068 57.3903 83.7775 57.3555 83.83 57.3001L84.34 56.8201C84.4562 56.928 84.5979 57.0048 84.7517 57.0433C84.9056 57.0817 85.0667 57.0806 85.22 57.0401C86.1914 56.9172 87.149 56.7029 88.08 56.4001C88.48 56.2801 88.31 55.6501 87.91 55.7801C87.1409 56.022 86.3556 56.2091 85.56 56.3401C85.3716 56.3772 85.1814 56.404 84.99 56.4201C84.9 56.4201 84.85 56.4201 84.83 56.3601C85.54 55.7001 86.26 55.0601 87 54.4401L89.73 52.2501C89.92 52.0601 89.54 51.5501 89.24 51.7801ZM73 55.1501C72.4559 55.7027 71.8405 56.1803 71.17 56.5701C71.6268 56.0317 72.1286 55.5332 72.67 55.0801C73.0628 54.7393 73.4807 54.4284 73.92 54.1501C73.6319 54.5 73.3248 54.8339 73 55.1501ZM81 53.1501C81.2585 52.9717 81.533 52.8177 81.82 52.6901C81.9753 52.6141 82.1475 52.5797 82.32 52.5901C82.53 52.5901 82.48 52.7601 82.4 52.9301C82.1511 53.3878 81.8107 53.7895 81.4 54.1101C80.543 54.7222 79.5851 55.1792 78.57 55.4601C79.2009 54.5586 79.9904 53.7793 80.9 53.1601L81 53.1501ZM78.38 56.7001C78.2741 56.774 78.1491 56.8156 78.02 56.8201C77.92 56.8201 77.96 56.8201 78.02 56.6901C78.0251 56.5608 78.0593 56.4343 78.12 56.3201L79.75 55.7401C79.301 56.1216 78.8074 56.4473 78.28 56.7101L78.38 56.7001Z" fill="#4A4F54"/>
<path d="M41.0801 51.89C41.0436 51.8842 41.0065 51.8842 40.9701 51.89C43.1049 50.1077 45.0156 48.0728 46.6601 45.83C46.9401 45.42 47.4901 44.83 47.4401 44.23C47.3501 43.38 46.4401 44.17 46.1201 44.4C44.6958 45.576 43.3805 46.8779 42.1901 48.29C41.1001 49.54 40.0801 50.84 39.0601 52.15L38.7701 52.26C37.9512 52.6398 37.2219 53.1885 36.6301 53.87C36.4715 54.0089 36.3494 54.1845 36.2745 54.3815C36.1995 54.5785 36.174 54.7909 36.2001 55C36.2284 55.112 36.2907 55.2125 36.3785 55.2877C36.4662 55.3629 36.575 55.4091 36.6901 55.42C36.5301 55.68 36.3701 55.95 36.2301 56.22C36.0094 56.5046 35.9024 56.861 35.9301 57.22C36.0501 57.64 36.4901 57.68 36.8401 57.56C37.5152 57.3129 38.1542 56.9766 38.7401 56.56C39.3733 56.1287 39.9628 55.6363 40.5001 55.09C40.7301 54.85 40.9401 54.59 41.1501 54.33C41.4216 54.0337 41.6443 53.6962 41.8101 53.33C41.8694 53.1884 41.8972 53.0356 41.8916 52.8822C41.886 52.7287 41.8472 52.5783 41.7777 52.4414C41.7083 52.3044 41.61 52.1842 41.4895 52.089C41.3691 51.9938 41.2293 51.9259 41.0801 51.89ZM45.0801 46.14L45.9701 45.34C46.1068 45.2186 46.2504 45.1051 46.4001 45H46.4601C46.2701 45.3 46.0701 45.58 45.8701 45.86C44.8835 47.1962 43.7791 48.4412 42.5701 49.58C41.8401 50.28 41.0801 50.97 40.3101 51.64C41.7675 49.6958 43.3616 47.8579 45.0801 46.14ZM37.0001 54.84C36.8701 54.84 36.8101 54.84 36.8501 54.69C36.9888 54.3966 37.1943 54.1398 37.4501 53.94C37.6803 53.7145 37.9277 53.5072 38.1901 53.32C38.1901 53.32 37.4301 54.32 37.0901 54.85L37.0001 54.84ZM41.0001 53.45C40.3488 54.4197 39.517 55.2549 38.5501 55.91C38.0789 56.2557 37.5768 56.557 37.0501 56.81C36.956 56.856 36.8591 56.8961 36.7601 56.93C36.7014 56.9439 36.6444 56.9641 36.5901 56.99C36.5901 56.9 36.6701 56.78 36.7101 56.7C36.7501 56.62 36.9001 56.35 37.0001 56.17C37.1001 55.99 37.2801 55.72 37.4201 55.5C37.5028 55.4768 37.5745 55.4247 37.6222 55.3531C37.6699 55.2816 37.6904 55.1954 37.6801 55.11C38.0001 54.65 38.7501 53.72 38.7601 53.71C39.2547 53.2542 39.772 52.8237 40.3101 52.42C40.4789 52.3919 40.6512 52.3919 40.8201 52.42C40.9601 52.47 41.1701 52.53 41.2301 52.69C41.2901 52.85 41.1401 53.27 41.0001 53.45Z" fill="#4A4F54"/>
<path d="M54.0001 11.5801V16.6701H39.7501V20.2501H50.34V25.0501H39.7501V28.5401H54.5501V33.6701H34.4301V11.5801H54.0001Z" fill="#4A4F54"/>
<path d="M76.09 19.8901C75.3792 18.6758 74.3535 17.6761 73.1213 16.9967C71.8891 16.3172 70.4963 15.9833 69.09 16.0301C68.2024 15.9955 67.3168 16.1405 66.4865 16.4564C65.6562 16.7722 64.8982 17.2524 64.258 17.8682C63.6177 18.4841 63.1084 19.2228 62.7604 20.0402C62.4125 20.8575 62.2332 21.7367 62.2332 22.6251C62.2332 23.5134 62.4125 24.3926 62.7604 25.21C63.1084 26.0274 63.6177 26.7661 64.258 27.3819C64.8982 27.9978 65.6562 28.478 66.4865 28.7938C67.3168 29.1097 68.2024 29.2547 69.09 29.2201C70.4764 29.3076 71.8605 29.016 73.0938 28.3765C74.327 27.737 75.3628 26.7737 76.09 25.5901L80.38 28.0001C78.14 32.1901 73.87 34.2701 69.03 34.2701C62.29 34.2701 57.03 29.8401 57.03 22.6801C57.03 15.5201 62.54 11.1001 69.03 11.1001C74.03 11.1001 78.11 13.2101 80.38 17.3701L76.09 19.8901Z" fill="#4A4F54"/>
<path d="M153.69 19.8901C152.979 18.6758 151.953 17.6761 150.721 16.9967C149.489 16.3172 148.096 15.9833 146.69 16.0301C145.802 15.9955 144.917 16.1405 144.087 16.4564C143.256 16.7722 142.498 17.2524 141.858 17.8682C141.218 18.4841 140.708 19.2228 140.36 20.0402C140.013 20.8575 139.833 21.7367 139.833 22.6251C139.833 23.5134 140.013 24.3926 140.36 25.21C140.708 26.0274 141.218 26.7661 141.858 27.3819C142.498 27.9978 143.256 28.478 144.087 28.7938C144.917 29.1097 145.802 29.2547 146.69 29.2201C148.077 29.3087 149.461 29.0176 150.695 28.378C151.928 27.7383 152.964 26.7745 153.69 25.5901L158 28.0001C155.76 32.1901 151.49 34.2701 146.65 34.2701C139.91 34.2701 134.65 29.8401 134.65 22.6801C134.65 15.5201 140.16 11.1001 146.65 11.1001C151.65 11.1001 155.73 13.2101 158 17.3701L153.69 19.8901Z" fill="#4A4F54"/>
<path d="M17.1 11.5801H8.90002V19.7801H17.1V11.5801Z" fill="#4A4F54"/>
<path d="M21.3 11.5801H20.92V16.7101H21.72C22.1816 16.6655 22.6473 16.7202 23.0859 16.8705C23.5246 17.0208 23.926 17.2632 24.2632 17.5815C24.6004 17.8998 24.8656 18.2865 25.041 18.7157C25.2164 19.145 25.2979 19.6067 25.28 20.0701C25.3048 20.5428 25.2295 21.0153 25.059 21.4569C24.8885 21.8984 24.6266 22.299 24.2905 22.6322C23.9543 22.9655 23.5516 23.224 23.1087 23.3908C22.6657 23.5576 22.1925 23.6289 21.72 23.6001H8.90002V33.6701H14.22V28.7401H21.3C26.61 28.7401 30.53 25.3401 30.53 20.1101C30.53 14.8801 26.61 11.5801 21.3 11.5801Z" fill="#4A4F54"/>
<path d="M100.54 28.4901L106.3 11.58H100.89L97.73 21.4501H91.52C91.2486 21.449 90.9847 21.361 90.767 21.1991C90.5492 21.0371 90.3891 20.8097 90.31 20.55L87.61 11.55H82.27L85.51 21.72C86.59 24.92 88.63 26.1 92.15 26.1H96.31L96 27.19C95.8332 27.7184 95.5013 28.1793 95.0531 28.5051C94.6049 28.8309 94.0641 29.0044 93.51 29H86.76L85.22 33.7201H93.31C94.9116 33.7174 96.4717 33.2108 97.7693 32.2722C99.0669 31.3335 100.036 30.0103 100.54 28.4901Z" fill="#4A4F54"/>
<path d="M24.27 3.41989H22V7.67989H20.92V2.38989H24.27V3.41989Z" fill="#4A4F54"/>
<path d="M30.31 4.16994C30.3271 4.419 30.2897 4.66879 30.2006 4.90198C30.1115 5.13517 29.9726 5.34615 29.7937 5.52028C29.6148 5.69441 29.4002 5.82751 29.1647 5.91035C28.9292 5.99318 28.6785 6.02375 28.43 5.99994H27.29V7.70994H26.21V2.38994H28.43C28.6747 2.36353 28.9223 2.3906 29.1556 2.46928C29.3889 2.54797 29.6024 2.67639 29.7811 2.84566C29.9599 3.01494 30.0998 3.22102 30.1911 3.44967C30.2824 3.67832 30.323 3.92408 30.31 4.16994ZM29.22 4.16994C29.22 3.69994 28.95 3.40994 28.39 3.40994H27.29V4.93994H28.39C29 4.93994 29.22 4.63994 29.22 4.17994V4.16994Z" fill="#4A4F54"/>
<path d="M33.92 7.67989H32.71L33.71 5.84989L31.85 2.38989H33.05L34.27 4.67989L35.46 2.38989H36.66L33.92 7.67989Z" fill="#4A4F54"/>
<path d="M43.11 7.67989H42V3.41989H39.68V7.67989H38.6V2.38989H43.11V7.67989Z" fill="#4A4F54"/>
<path d="M49.93 7.67989H48.85V3.41989H46.5V7.67989H45.42V2.38989H49.93V7.67989Z" fill="#4A4F54"/>
<path d="M55.61 6.42989H53.47L53 7.67989H51.88L53.88 2.38989H55.24L57.24 7.67989H56.05L55.61 6.42989ZM55.23 5.42989L54.54 3.50989L53.84 5.42989H55.23Z" fill="#4A4F54"/>
<path d="M66 6.42989H63.81L63.35 7.67989H62.21L64.21 2.38989H65.58L67.58 7.67989H66.43L66 6.42989ZM65.62 5.42989L64.92 3.50989L64.23 5.42989H65.62Z" fill="#4A4F54"/>
<path d="M72.83 3.41989H70.57V7.67989H69.49V2.38989H72.83V3.41989Z" fill="#4A4F54"/>
<path d="M78.88 4.17C78.8971 4.41906 78.8598 4.66886 78.7707 4.90204C78.6815 5.13523 78.5427 5.34621 78.3638 5.52034C78.1849 5.69448 77.9703 5.82758 77.7348 5.91041C77.4993 5.99324 77.2485 6.02381 77 6H75.86V7.71H74.78V2.39H77C77.2445 2.36532 77.4914 2.39359 77.7239 2.47291C77.9564 2.55222 78.1691 2.68071 78.3475 2.84962C78.5259 3.01854 78.6658 3.22391 78.7577 3.45176C78.8496 3.67961 78.8913 3.92458 78.88 4.17ZM77.78 4.17C77.78 3.7 77.51 3.41 76.95 3.41H75.86V4.94H77C77.51 4.94 77.78 4.64 77.78 4.18V4.17Z" fill="#4A4F54"/>
<path d="M86.22 4.99995C86.224 5.54666 86.0655 6.08223 85.7646 6.53874C85.4638 6.99524 85.0341 7.35211 84.5301 7.56407C84.0262 7.77604 83.4706 7.83356 82.9339 7.72933C82.3972 7.62511 81.9036 7.36383 81.5156 6.97865C81.1276 6.59346 80.8627 6.10172 80.7546 5.5658C80.6465 5.02987 80.6999 4.47391 80.9082 3.96842C81.1165 3.46293 81.4703 3.03069 81.9246 2.72652C82.3789 2.42235 82.9133 2.25997 83.46 2.25995C83.823 2.25184 84.1839 2.31702 84.5211 2.45159C84.8583 2.58617 85.1649 2.78737 85.4225 3.04316C85.6802 3.29895 85.8836 3.60408 86.0206 3.9403C86.1577 4.27652 86.2255 4.63692 86.22 4.99995ZM81.8 4.99995C81.8 5.21794 81.8429 5.4338 81.9264 5.63521C82.0098 5.83661 82.1321 6.0196 82.2862 6.17375C82.4404 6.32789 82.6233 6.45017 82.8247 6.53359C83.0261 6.61701 83.242 6.65995 83.46 6.65995C83.678 6.65995 83.8939 6.61701 84.0953 6.53359C84.2967 6.45017 84.4797 6.32789 84.6338 6.17375C84.7879 6.0196 84.9102 5.83661 84.9936 5.63521C85.0771 5.4338 85.12 5.21794 85.12 4.99995C85.12 4.78196 85.0771 4.5661 84.9936 4.3647C84.9102 4.1633 84.7879 3.9803 84.6338 3.82615C84.4797 3.67201 84.2967 3.54973 84.0953 3.46631C83.8939 3.38289 83.678 3.33995 83.46 3.33995C83.242 3.33995 83.0261 3.38289 82.8247 3.46631C82.6233 3.54973 82.4404 3.67201 82.2862 3.82615C82.1321 3.9803 82.0098 4.1633 81.9264 4.3647C81.8429 4.5661 81.8 4.78196 81.8 4.99995Z" fill="#4A4F54"/>
<path d="M92.8 7.67989H91.72V3.41989H89.37V7.67989H88.29V2.38989H92.8V7.67989Z" fill="#4A4F54"/>
<path d="M99.21 4.17C99.2226 4.41662 99.1819 4.66307 99.0907 4.89257C98.9996 5.12207 98.8601 5.32926 98.6817 5.50004C98.5033 5.67082 98.2903 5.80119 98.0571 5.88228C97.8238 5.96338 97.5758 5.99329 97.33 5.97H96.19V7.68H95.11V2.39H97.33C97.5744 2.36532 97.8213 2.39359 98.0538 2.47291C98.2864 2.55222 98.4991 2.68071 98.6775 2.84962C98.8559 3.01854 98.9958 3.22391 99.0877 3.45176C99.1796 3.67961 99.2213 3.92458 99.21 4.17ZM98.12 4.17C98.12 3.7 97.85 3.41 97.29 3.41H96.19V4.94H97.29C97.85 4.94 98.12 4.64 98.12 4.18V4.17Z" fill="#4A4F54"/>
<path d="M102.37 3.41989V4.47989H104.63V5.47989H102.37V6.61989H104.84V7.61989H101.29V2.38989H104.84V3.38989L102.37 3.41989Z" fill="#4A4F54"/>
<path d="M112.39 6.64989V8.72989H111.31V7.67989H107.73V8.72989H106.65V6.64989H107.4C107.551 6.44642 107.638 6.20282 107.65 5.94989L108.22 2.38989H111.63V6.64989H112.39ZM108.57 6.64989H110.57V3.41989H109.15L108.73 6.04989C108.692 6.25361 108.638 6.45417 108.57 6.64989Z" fill="#4A4F54"/>
<path d="M118.84 7.67989H117.76V3.41989H115.41V7.67989H114.33V2.38989H118.84V7.67989Z" fill="#4A4F54"/>
<path d="M125.25 4.16994C125.263 4.41656 125.222 4.663 125.131 4.89251C125.04 5.12201 124.9 5.3292 124.722 5.49998C124.543 5.67076 124.33 5.80112 124.097 5.88222C123.864 5.96331 123.616 5.99323 123.37 5.96994H122.23V7.67994H121.15V2.38994H123.37C123.615 2.36353 123.862 2.3906 124.096 2.46928C124.329 2.54797 124.542 2.67639 124.721 2.84566C124.9 3.01494 125.04 3.22102 125.131 3.44967C125.222 3.67832 125.263 3.92408 125.25 4.16994ZM124.16 4.16994C124.16 3.69994 123.89 3.40994 123.33 3.40994H122.23V4.93994H123.33C123.89 4.93994 124.16 4.63994 124.16 4.17994V4.16994Z" fill="#4A4F54"/>
<path d="M131.81 2.38989V7.67989H130.73V5.46989L130.83 3.97989L128.53 7.67989H127.29V2.38989H128.37V4.59989L128.27 6.08989L130.58 2.38989H131.81Z" fill="#4A4F54"/>
<path d="M138.1 2.38989V7.67989H137V5.85989H136.32L135.03 7.67989H133.7L135.12 5.74989C134.775 5.64782 134.475 5.43017 134.271 5.13341C134.067 4.83665 133.971 4.47882 134 4.11989C133.984 3.88251 134.02 3.6445 134.106 3.4226C134.192 3.2007 134.325 3.00028 134.497 2.83541C134.668 2.67054 134.874 2.54522 135.099 2.46826C135.324 2.39129 135.563 2.36454 135.8 2.38989H138.1ZM137 4.87989V3.41989H135.92C135.36 3.41989 135.09 3.70989 135.09 4.14989C135.09 4.58989 135.36 4.87989 135.92 4.87989H137Z" fill="#4A4F54"/>
<path d="M144.16 3.41992H142.63V7.67992H141.55V3.41992H140V2.41992H144.12L144.16 3.41992Z" fill="#4A4F54"/>
<path d="M150.59 2.38989V7.67989H149.51V5.46989L149.61 3.97989L147.31 7.67989H146.07V2.38989H147.15V4.59989L147.05 6.08989L149.35 2.38989H150.59Z" fill="#4A4F54"/>
<path d="M157.35 2.38993V7.67993H156.27V5.46993L156.37 3.97993L154.07 7.67993H152.83V2.38993H153.91V4.59993L153.81 6.08993L156.11 2.38993H157.35ZM153.82 0.629932V0.429932H154.67V0.599932C154.661 0.659829 154.664 0.721035 154.681 0.779346C154.698 0.837657 154.727 0.891689 154.766 0.937733C154.805 0.983776 154.854 1.02074 154.909 1.04608C154.964 1.07142 155.024 1.08455 155.085 1.08455C155.146 1.08455 155.205 1.07142 155.261 1.04608C155.316 1.02074 155.365 0.983776 155.404 0.937733C155.443 0.891689 155.472 0.837657 155.489 0.779346C155.506 0.721035 155.509 0.659829 155.5 0.599932V0.429932H156.35V0.629932C156.322 0.946018 156.176 1.24012 155.942 1.45433C155.708 1.66855 155.402 1.78735 155.085 1.78735C154.768 1.78735 154.462 1.66855 154.228 1.45433C153.994 1.24012 153.848 0.946018 153.82 0.629932Z" fill="#4A4F54"/>
<path d="M122.2 11.5801H109.8V33.6701H115.12V28.7401H122.2C127.51 28.7401 131.43 25.3401 131.43 20.1101C131.43 14.8801 127.51 11.5801 122.2 11.5801ZM122.62 23.5801H115.12V16.7101H122.62C123.082 16.6655 123.547 16.7202 123.986 16.8705C124.425 17.0208 124.826 17.2632 125.163 17.5815C125.5 17.8998 125.766 18.2865 125.941 18.7157C126.116 19.145 126.198 19.6067 126.18 20.0701C126.205 20.5428 126.13 21.0153 125.959 21.4569C125.788 21.8984 125.527 22.299 125.19 22.6322C124.854 22.9655 124.452 23.224 124.009 23.3908C123.566 23.5576 123.092 23.6289 122.62 23.6001V23.5801Z" fill="#4A4F54"/>
</g>
<defs>
<clipPath id="clip0_2738_5649">
<rect width="172" height="65" fill="white"/>
</clipPath>
</defs>
</svg>
