<?xml version="1.0" encoding="UTF-8"?>
<!-- Created with Inkscape (http://www.inkscape.org/) -->
<svg width="200" height="100" version="1.1" viewBox="0 0 52.917 26.458" xml:space="preserve" xmlns="http://www.w3.org/2000/svg"><g transform="translate(-103.5 -154.15)"><g transform="translate(0 -12.658)"><g transform="matrix(.26458 0 0 .26458 117.12 179.7)" fill="#1d1d1b"><path d="m0 7.273c0-0.82822 0.13721-1.6258 0.41163-2.4003 0.27442-0.76687 0.67081-1.4494 1.2044-2.0476 0.52597-0.59816 1.1739-1.066 1.9362-1.411 0.76228-0.3451 1.616-0.51381 2.5689-0.51381s1.8066 0.16871 2.5689 0.51381c0.76228 0.33742 1.4102 0.81288 1.9362 1.411 0.5336 0.59816 0.9299 1.2807 1.2044 2.0399 0.2744 0.7592 0.404 1.5644 0.404 2.408s-0.1372 1.6641-0.4117 2.4463c-0.2744 0.78217-0.6784 1.4648-1.2044 2.0629-0.5259 0.5982-1.1739 1.0736-1.9361 1.4111-0.76228 0.3451-1.616 0.5138-2.5613 0.5138-1.2501 0-2.3402-0.2914-3.2702-0.8819s-1.6313-1.3727-2.1191-2.362c-0.48786-0.98927-0.73179-2.0476-0.73179-3.1902zm1.9057 0c0 0.90491 0.13721 1.8098 0.41163 2.7147 0.27442 0.90486 0.72416 1.6718 1.3568 2.293 0.6327 0.6211 1.4483 0.9356 2.4469 0.9356s1.8142-0.3145 2.4469-0.9356c0.63269-0.6212 1.09-1.3881 1.3568-2.293 0.27443-0.90491 0.40403-1.8098 0.40403-2.7147 0-0.64417-0.0686-1.296-0.2058-1.9632-0.13725-0.66717-0.37355-1.296-0.70133-1.8942s-0.76228-1.0813-1.3111-1.4571c-0.54884-0.36809-1.212-0.55981-1.9972-0.55981-0.93761 0-1.7228 0.28374-2.3554 0.85123-0.6327 0.56748-1.1053 1.296-1.4026 2.1932-0.30491 0.89724-0.44974 1.8405-0.44974 2.8221"/><path d="m20.002 9.1212h-3.636v3.5352c0 0.1687 0.0457 0.2761 0.1448 0.3375 0.0991 0.0613 0.2592 0.0843 0.4802 0.0843h0.4879v0.3835h-3.7581v-0.3835h0.6861c0.2287 0 0.3888-0.0307 0.4802-0.0843 0.0991-0.0614 0.1449-0.1688 0.1449-0.3375v-6.5107c0-0.16871-0.0458-0.28374-0.1449-0.33742s-0.2591-0.08436-0.4802-0.08436h-0.6861v-0.38344h3.7581v0.38344h-0.4879c-0.221 0-0.3887 0.03068-0.4802 0.08436-0.0991 0.05368-0.1448 0.16871-0.1448 0.33742v2.5844h3.636v-2.5844c0-0.16871-0.0457-0.28374-0.1448-0.33742s-0.2592-0.08436-0.4879-0.08436h-0.5107v-0.38344h3.7809v0.38344h-0.686c-0.2211 0-0.3888 0.03068-0.4803 0.08436-0.0991 0.05368-0.1448 0.16871-0.1448 0.33742v6.5107c0 0.1687 0.0457 0.2761 0.1448 0.3375 0.0991 0.0613 0.2592 0.0843 0.4803 0.0843h0.686v0.3835h-3.7809v-0.3835h0.5107c0.2211 0 0.3888-0.0307 0.4879-0.0843 0.0991-0.0537 0.1448-0.1688 0.1448-0.3375z"/><path d="m30.659 8.8221h-5.2979c-0.0152 0.15337-0.0152 0.37576-0.0152 0.66717 0 0.87424 0.122 1.5721 0.3659 2.1012s0.5565 0.8972 0.93 1.112c0.3735 0.2147 0.7775 0.322 1.2044 0.322 1.0519 0 1.8599-0.5444 2.424-1.6334l0.3202 0.1764c-0.2363 0.4524-0.4955 0.8359-0.7776 1.1426-0.282 0.3068-0.6098 0.5445-0.9833 0.7055-0.3735 0.1611-0.808 0.2454-1.3111 0.2454s-0.9681-0.092-1.4102-0.2684c-0.4422-0.1763-0.8385-0.4447-1.1816-0.7975-0.343-0.3528-0.6098-0.7899-0.808-1.296-0.1905-0.5138-0.2896-1.089-0.2896-1.7332 0-0.81288 0.1448-1.5644 0.4421-2.2393 0.2973-0.67485 0.7165-1.204 1.273-1.5951 0.5564-0.39111 1.212-0.58283 1.9743-0.58283s1.3187 0.18405 1.7913 0.55982c0.4727 0.3681 0.8157 0.83589 1.0291 1.4034 0.2135 0.56749 0.3202 1.135 0.3202 1.7178m-5.2979-0.38344h3.8648v-0.25307c0-0.93558-0.1677-1.6104-0.5031-2.0245s-0.747-0.62883-1.2425-0.62883c-0.2821 0-0.5717 0.07669-0.8614 0.22239-0.2897 0.15338-0.5565 0.44479-0.8004 0.8819-0.2439 0.43712-0.3888 1.0353-0.4574 1.8022z"/><path d="m31.749 13.462v-0.3835h0.6861c0.2287 0 0.3887-0.0307 0.4802-0.0843 0.0991-0.0537 0.1448-0.1688 0.1448-0.3375v-6.5107c0-0.16871-0.0457-0.28374-0.1448-0.33742s-0.2592-0.08436-0.4802-0.08436h-0.6861v-0.38344h6.5023v2.1626h-0.4422v-0.15337c0-0.42178-0.2058-0.79755-0.6098-1.1273-0.4116-0.32976-1.1434-0.4908-2.203-0.4908h-0.2058c-0.2668 0-0.3964 0.13804-0.3964 0.42178v6.5107c0 0.1687 0.0458 0.2761 0.1449 0.3374 0.0991 0.0614 0.2591 0.0844 0.4802 0.0844h0.8538v0.3834h-4.124z"/><path d="m39.021 13.462v-0.3835h0.686c0.2287 0 0.3888-0.0307 0.4803-0.0843 0.0991-0.0537 0.1448-0.1688 0.1448-0.3375v-6.5107c0-0.16871-0.0457-0.28374-0.1448-0.33742s-0.2592-0.08436-0.4803-0.08436h-0.686v-0.38344h3.7733v0.38344h-0.5107c-0.2287 0-0.3888 0.03068-0.4803 0.08436-0.0991 0.05368-0.1448 0.16871-0.1448 0.33742v5.3144l3.8114-4.8543v-0.46012c0-0.16871-0.0458-0.28374-0.1449-0.33742s-0.2591-0.08436-0.4802-0.08436h-0.5107v-0.38344h3.7733v0.38344h-0.6861c-0.2211 0-0.3887 0.03068-0.4802 0.08436-0.0991 0.05368-0.1449 0.16871-0.1449 0.33742v6.5107c0 0.1687 0.0458 0.2761 0.1449 0.3375 0.0991 0.0613 0.2591 0.0843 0.4802 0.0843h0.6861v0.3835h-3.7733v-0.3835h0.5107c0.2287 0 0.3888-0.0307 0.4802-0.0843 0.0991-0.0537 0.1449-0.1688 0.1449-0.3375v-5.4371l-3.8114 4.8927v0.5444c0 0.1764 0.0457 0.2914 0.1372 0.3375 0.0915 0.0536 0.2515 0.0766 0.4879 0.0766h0.5107v0.3835h-3.7733z"/><path d="m55.502 9.1212h-3.636v3.5352c0 0.1687 0.0457 0.2761 0.1448 0.3375 0.0991 0.0613 0.2592 0.0843 0.4802 0.0843h0.4879v0.3835h-3.758v-0.3835h0.686c0.2211 0 0.3888-0.0307 0.4802-0.0843 0.0991-0.0614 0.1449-0.1688 0.1449-0.3375v-6.5107c0-0.16871-0.0458-0.28374-0.1449-0.33742s-0.2591-0.08436-0.4802-0.08436h-0.686v-0.38344h3.758v0.38344h-0.4879c-0.221 0-0.3887 0.03068-0.4802 0.08436-0.0991 0.05368-0.1448 0.16871-0.1448 0.33742v2.5844h3.636v-2.5844c0-0.16871-0.0457-0.28374-0.1448-0.33742s-0.2592-0.08436-0.4879-0.08436h-0.5107v-0.38344h3.7733v0.38344h-0.6861c-0.221 0-0.3887 0.03068-0.4802 0.08436-0.0991 0.05368-0.1448 0.16871-0.1448 0.33742v6.5107c0 0.1687 0.0457 0.2761 0.1448 0.3375 0.0991 0.0613 0.2592 0.0843 0.4802 0.0843h0.6861v0.3835h-3.7733v-0.3835h0.5107c0.2287 0 0.3888-0.0307 0.4879-0.0843 0.0991-0.0614 0.1448-0.1688 0.1448-0.3375z"/><path d="m61.638 1.1534h8.9187v0.4908h-0.991c-0.4421 0-0.6632 0.26074-0.6632 0.78988v9.7392c0 0.5292 0.2211 0.7899 0.6632 0.7899h0.991l0.1372 3.2055h-0.5565l-0.0533-0.6902c-0.0229-0.3297-0.2363-0.6441-0.648-0.9586-0.4116-0.3144-0.9528-0.5674-1.616-0.7668s-1.3492-0.2991-2.0658-0.2991h-2.7289c-0.7623 0-1.5017 0.184-2.2183 0.5445-0.7241 0.3604-1.1129 0.8742-1.1739 1.5337l-0.0533 0.6365h-0.5565l0.2287-3.2055c0.4421-0.0537 0.8385-0.2377 1.1968-0.5445 0.3506-0.3067 0.686-0.8205 0.9909-1.5261 0.5336-1.227 0.9986-2.7147 1.4026-4.4631 0.404-1.7485 0.6022-2.9755 0.6022-3.6733 0-0.46779-0.0991-0.76687-0.2973-0.90491-0.1982-0.13803-0.465-0.20705-0.7851-0.20705h-0.7166v-0.4908zm0.7166 11.818h4.2611c0.4421 0 0.6632-0.2608 0.6632-0.7899v-9.7393c0-0.52915-0.2135-0.78988-0.648-0.78988h-1.5779c-0.2973 0-0.526 0.08435-0.6784 0.25306-0.1525 0.16872-0.2516 0.36044-0.2973 0.56749-0.0457 0.21472-0.122 0.62117-0.2134 1.227-0.3278 2.0322-0.6708 3.6963-1.0444 4.9923-0.2515 0.86656-0.4421 1.4571-0.564 1.7792-0.122 0.3221-0.2592 0.6902-0.4269 1.1119-0.1677 0.4218-0.2516 0.6979-0.2516 0.8359 0 0.3758 0.2592 0.5598 0.7699 0.5598"/><path d="m76.937 8.615v-0.91257c0-0.39111-0.0381-0.7362-0.1143-1.043-0.0763-0.30675-0.2516-0.56748-0.5336-0.78988-0.2821-0.22239-0.7089-0.32975-1.273-0.32975-0.404 0-0.6785 0.06135-0.8157 0.18405s-0.2058 0.2454-0.2058 0.36043c0 0.06902 0.0153 0.16104 0.0381 0.27607 0.0381 0.1227 0.0534 0.2454 0.0534 0.3681 0 0.26074-0.0762 0.45245-0.2287 0.58282s-0.343 0.19172-0.5565 0.19172c-0.2363 0-0.4192-0.08436-0.5564-0.25307-0.1296-0.16871-0.1982-0.36043-0.1982-0.59049 0-0.3911 0.1982-0.74386 0.6022-1.0506 0.3964-0.30675 1.0062-0.46013 1.8142-0.46013 2.203 0 3.3083 0.85123 3.3083 2.5537v4.5935c0 0.4525 0.1296 0.6825 0.3811 0.6825 0.2745 0 0.4879-0.23 0.648-0.6825l0.3811 0.1534c-0.0915 0.2991-0.2592 0.5751-0.4955 0.8359-0.2363 0.253-0.5717 0.3834-1.0062 0.3834-0.4573 0-0.7775-0.161-0.9604-0.4831-0.183-0.3221-0.2745-0.6749-0.2745-1.043-0.8309 1.02-1.8066 1.5261-2.9195 1.5261-0.5717 0-1.0215-0.161-1.3569-0.4908-0.3354-0.3297-0.5031-0.7439-0.5031-1.25s0.1296-0.9202 0.3812-1.296c0.2515-0.3681 0.5946-0.68251 1.0291-0.92791 0.4345-0.25307 0.9299-0.46012 1.4864-0.6365 0.5565-0.16872 1.1815-0.32209 1.8828-0.45246m0 3.0062v-2.6151c-0.8842 0.16871-1.5626 0.3911-2.0429 0.67484-0.4726 0.28374-0.7927 0.59052-0.9604 0.91262-0.1678 0.3297-0.2516 0.6748-0.2516 1.0429 0 0.4218 0.0991 0.7515 0.2973 0.9816 0.1982 0.2377 0.4574 0.3528 0.7851 0.3528 0.6708 0 1.395-0.4525 2.1725-1.3497z"/><path d="m85.726 12.656v-2.8987c-0.7166 0.28373-1.5017 0.42173-2.3402 0.42173-1.5017 0-2.2564-0.62879-2.2564-1.8788v-2.1472c0-0.16871-0.0457-0.28374-0.1448-0.33742s-0.2592-0.08435-0.4803-0.08435h-0.5259v-0.38344h3.476v0.38344h-0.3659c-0.2287 0-0.3888 0.03067-0.4803 0.08435-0.0991 0.05368-0.1448 0.16871-0.1448 0.33742v2.477c0 0.68251 0.4955 1.0199 1.4864 1.0199 0.5946 0 1.1892-0.11504 1.7838-0.35277v-3.1442c0-0.16871-0.0458-0.28374-0.1449-0.33742s-0.2591-0.08435-0.4878-0.08435h-0.3659v-0.38344h3.6361v0.38344h-0.6861c-0.221 0-0.3887 0.03067-0.4802 0.08435-0.0991 0.05368-0.1449 0.16871-0.1449 0.33742v6.5107c0 0.1687 0.0458 0.2761 0.1449 0.3374 0.0991 0.0614 0.2592 0.0844 0.4802 0.0844h0.6861v0.3834h-4.124v-0.3834h0.8538c0.2287 0 0.3887-0.0307 0.4878-0.0844 0.0991-0.0536 0.1449-0.1687 0.1449-0.3374"/><path d="m94.263 8.615v-0.91257c0-0.39111-0.0381-0.7362-0.1143-1.043s-0.2516-0.56748-0.5336-0.78988c-0.2821-0.22239-0.7089-0.32975-1.273-0.32975-0.404 0-0.6785 0.06135-0.8157 0.18405s-0.2058 0.2454-0.2058 0.36043c0 0.06902 0.0153 0.16104 0.0381 0.27607 0.0382 0.1227 0.0534 0.2454 0.0534 0.3681 0 0.26074-0.0762 0.45245-0.2287 0.58282-0.1524 0.13037-0.343 0.19172-0.5565 0.19172-0.2363 0-0.4192-0.08436-0.5564-0.25307-0.1296-0.16871-0.1982-0.36043-0.1982-0.59049 0-0.3911 0.1982-0.74386 0.6022-1.0506 0.3964-0.30675 1.0062-0.46013 1.8142-0.46013 2.203 0 3.3083 0.85123 3.3083 2.5537v4.5935c0 0.4525 0.1296 0.6825 0.3812 0.6825 0.2744 0 0.4878-0.23 0.6479-0.6825l0.3811 0.1534c-0.0914 0.2991-0.2591 0.5751-0.4955 0.8359-0.2363 0.253-0.5717 0.3834-1.0062 0.3834-0.4573 0-0.7775-0.161-0.9604-0.4831-0.183-0.3221-0.2745-0.6749-0.2745-1.043-0.8385 1.02-1.8066 1.5261-2.9195 1.5261-0.5717 0-1.0214-0.161-1.3568-0.4908-0.3354-0.3297-0.5031-0.7439-0.5031-1.25s0.1295-0.9202 0.3811-1.296c0.2515-0.3681 0.5946-0.68251 1.0291-0.92791 0.4345-0.25307 0.9299-0.46012 1.4864-0.6365 0.5565-0.16872 1.1815-0.32209 1.8828-0.45246m0 3.0062v-2.6151c-0.8842 0.16871-1.5626 0.3911-2.0429 0.67484-0.4726 0.28374-0.7927 0.59052-0.9604 0.91262-0.1677 0.3297-0.2516 0.6748-0.2516 1.0429 0 0.4218 0.0991 0.7515 0.2973 0.9816 0.1982 0.2377 0.4574 0.3528 0.7851 0.3528 0.6709 0 1.395-0.4525 2.1725-1.3497z"/><path d="m32.1 26h-1.8447l0.0457-0.1841h0.2439c0.1144 0 0.1982-0.0153 0.244-0.046 0.0457-0.0306 0.0838-0.0843 0.1067-0.161l1.2806-4.7163c0.0305-0.092 0.0381-0.1687 0.0381-0.2377 0-0.092-0.0381-0.138-0.1067-0.138-0.1067 0-0.2439 0.0843-0.4116 0.253s-0.3049 0.3298-0.404 0.4985l-0.1525-0.0997c0.122-0.184 0.2516-0.3604 0.3964-0.5138s0.3049-0.2837 0.4726-0.3834 0.3202-0.1534 0.4726-0.1534c0.1296 0 0.2363 0.0383 0.2973 0.1227 0.0686 0.0844 0.0991 0.1917 0.0991 0.3297 0 0.0997-0.0152 0.2071-0.0533 0.3221l-0.122 0.4065h0.0305c0.2287-0.3835 0.4497-0.6749 0.6708-0.8819 0.2211-0.1994 0.4726-0.3068 0.7547-0.3068 0.2972 0 0.5412 0.1074 0.7317 0.3221 0.1906 0.2147 0.2821 0.5368 0.2821 0.9509 0 0.4372-0.1067 0.8819-0.3126 1.3344-0.2058 0.4448-0.4954 0.8205-0.8613 1.1043-0.3659 0.2914-0.7623 0.4371-1.1892 0.4371-0.3583 0-0.6403-0.0844-0.8537-0.2531l-0.4269 1.5951c0 0.0844 0.0229 0.1381 0.061 0.1611 0.0381 0.0306 0.1067 0.0383 0.2058 0.0383h0.3278l-0.0381 0.1841zm0.3049-3.589-0.3125 1.1657c0.1219 0.3297 0.3659 0.4908 0.7394 0.4908 0.2744 0 0.5336-0.1534 0.7928-0.4525 0.2591-0.2991 0.4726-0.6748 0.6326-1.1273 0.1601-0.4524 0.244-0.8819 0.244-1.2883 0-0.3221-0.0534-0.5445-0.1525-0.6595-0.0991-0.1227-0.2058-0.1764-0.3049-0.1764-0.1753 0-0.3659 0.1074-0.5946 0.3144-0.2287 0.2071-0.4345 0.4755-0.625 0.7976-0.1906 0.322-0.3354 0.6365-0.4193 0.9432"/><path d="m38.617 22.825 0.1906 0.0997c-0.1906 0.3528-0.4422 0.6596-0.7547 0.928s-0.6937 0.3987-1.1282 0.3987c-0.2515 0-0.4726-0.0613-0.6555-0.184-0.183-0.1227-0.3278-0.2914-0.4193-0.5062-0.0991-0.2147-0.1448-0.4601-0.1448-0.7285 0-0.2837 0.0686-0.5905 0.2058-0.9126 0.1372-0.322 0.3201-0.6211 0.5641-0.8972 0.2363-0.2761 0.5107-0.4985 0.8156-0.6672s0.6175-0.253 0.9376-0.253c0.3202 0 0.526 0.0766 0.6708 0.2377 0.1372 0.161 0.2135 0.3451 0.2135 0.5598 0 0.1994-0.0839 0.4141-0.2592 0.6288-0.1753 0.2148-0.4574 0.4065-0.8538 0.5675-0.3963 0.1611-0.8918 0.2684-1.494 0.3068-0.0915 0.2607-0.1372 0.5214-0.1372 0.7822 0 0.2607 0.0686 0.4601 0.1982 0.6058 0.1372 0.1457 0.3125 0.2147 0.5335 0.2147 0.2973 0 0.5794-0.115 0.8538-0.3527 0.2668-0.2301 0.4955-0.5138 0.6861-0.8359m-2.0582-0.6442c0.404-0.023 0.7547-0.1074 1.0519-0.2607 0.305-0.1534 0.5336-0.3375 0.6937-0.5522s0.2439-0.4294 0.2439-0.6288c0-0.1304-0.0304-0.2301-0.099-0.3221-0.061-0.0844-0.1601-0.1304-0.2897-0.1304-0.2821 0-0.5717 0.1841-0.869 0.5522-0.3049 0.3681-0.5489 0.8129-0.7318 1.3343"/><path d="m42.36 22.794 0.183 0.0997c-0.1525 0.3451-0.3736 0.6518-0.6556 0.9356-0.282 0.2837-0.6479 0.4217-1.0824 0.4217-0.3888 0-0.6937-0.138-0.9148-0.4064-0.221-0.2761-0.3277-0.6365-0.3277-1.1043 0-0.4218 0.0991-0.8436 0.2972-1.25 0.1982-0.4064 0.4803-0.7439 0.8309-1.0046 0.3507-0.2607 0.7394-0.3911 1.1663-0.3911 0.1906 0 0.3659 0.0307 0.5107 0.0843 0.1449 0.0537 0.2516 0.1304 0.3278 0.2224 0.0762 0.0921 0.1144 0.1918 0.1144 0.2991 0 0.0997-0.0305 0.1841-0.0915 0.2454-0.061 0.0614-0.1448 0.092-0.2516 0.092-0.2286 0-0.3506-0.1227-0.3735-0.3681-0.0305-0.2607-0.1677-0.3911-0.404-0.3911-0.2592 0-0.5031 0.1457-0.7242 0.4295-0.221 0.2837-0.3963 0.6288-0.5259 1.0429s-0.1906 0.7899-0.1906 1.1427c0 0.7362 0.2516 1.1043 0.7547 1.1043s0.9604-0.3988 1.3568-1.2117"/><path d="m43.839 24.16h-0.648l0.9377-3.2745c0.0304-0.1381 0.0533-0.2148 0.0533-0.2378 0-0.092-0.0381-0.138-0.122-0.138-0.1067 0-0.2515 0.0844-0.4116 0.2454s-0.2973 0.3298-0.404 0.4985l-0.1524-0.0997c0.1829-0.2914 0.3963-0.5368 0.6403-0.7362 0.2439-0.2071 0.4802-0.3068 0.6936-0.3068 0.1373 0 0.2363 0.0384 0.305 0.1227 0.0686 0.0844 0.0991 0.1917 0.0991 0.3298 0 0.1073-0.0153 0.2147-0.0534 0.3221l-0.1067 0.3987h0.0305c0.4573-0.7822 0.9147-1.1733 1.3797-1.1733 0.1982 0 0.3659 0.0537 0.5107 0.1534s0.2058 0.2607 0.2058 0.4908c0 0.115-0.0152 0.2301-0.0457 0.3374l-0.0534 0.1994h0.0305c0.4574-0.7822 0.9148-1.1733 1.3797-1.1733 0.2287 0 0.4117 0.0613 0.5336 0.1917 0.1296 0.1227 0.1906 0.2838 0.1906 0.4755 0 0.1227-0.0305 0.276-0.0915 0.4678l-0.7165 2.2316c-0.0381 0.1073-0.0534 0.1917-0.0534 0.2454 0 0.092 0.0382 0.138 0.122 0.138 0.1143 0 0.2439-0.0767 0.4116-0.2377 0.1601-0.1611 0.2973-0.3298 0.4117-0.5062l0.1524 0.0997c-0.1829 0.2914-0.404 0.5368-0.6479 0.7439-0.2439 0.207-0.4803 0.3067-0.6937 0.3067-0.2668 0-0.3964-0.1533-0.3964-0.4524 0-0.1074 0.0153-0.2147 0.0534-0.3298l0.8004-2.4923c0.0457-0.1534 0.0686-0.2761 0.0686-0.3681 0-0.069-0.0229-0.1304-0.061-0.184-0.0457-0.0537-0.0991-0.0767-0.1753-0.0767-0.1601 0-0.3507 0.115-0.5794 0.3604-0.2286 0.2377-0.4421 0.5138-0.6403 0.8282s-0.3278 0.5675-0.3811 0.7592l-0.5336 1.8635h-0.6479l0.9147-3.1825c0.0534-0.1764 0.0762-0.3068 0.0762-0.3834 0-0.1611-0.0762-0.2378-0.2363-0.2378s-0.3583 0.1151-0.5869 0.3451c-0.2287 0.2301-0.4422 0.5062-0.6404 0.8206-0.1981 0.3144-0.3201 0.5751-0.3811 0.7745l-0.5336 1.8635z"/><path d="m51.744 20.103c0.2973 0 0.5489 0.069 0.7547 0.2147s0.3583 0.3451 0.465 0.6058c0.1067 0.2608 0.1524 0.5598 0.1524 0.9049s-0.0609 0.6825-0.1753 0.9816c-0.1143 0.2991-0.2668 0.5522-0.465 0.7669s-0.4345 0.3758-0.6936 0.4985c-0.2592 0.115-0.5413 0.1763-0.8233 0.1763-0.2821 0-0.5412-0.069-0.747-0.2147-0.2059-0.1457-0.3736-0.3374-0.4803-0.5828s-0.1601-0.5292-0.1601-0.8512c0-0.4065 0.0839-0.7976 0.2592-1.1887s0.4269-0.7055 0.7623-0.9509c0.3278-0.2454 0.7165-0.3681 1.151-0.3681m-0.8385 3.9647c0.1754 0 0.3583-0.069 0.5413-0.207 0.1829-0.1381 0.3506-0.3221 0.5107-0.5752 0.1524-0.2454 0.2744-0.5368 0.3659-0.8742 0.0914-0.3374 0.1372-0.6979 0.1372-1.0966 0-0.3988-0.0686-0.6519-0.1982-0.7976-0.1372-0.1534-0.2897-0.2301-0.465-0.2301-0.2363 0-0.4726 0.1151-0.7165 0.3528-0.244 0.2377-0.4422 0.5675-0.6022 0.9893-0.1601 0.4217-0.2363 0.8895-0.2363 1.4033 0 0.3835 0.0686 0.6519 0.2058 0.8053 0.1372 0.1533 0.2896 0.2223 0.4573 0.2223"/><path d="m54.579 26h-1.8447l0.0457-0.1841h0.2439c0.1144 0 0.1982-0.0153 0.244-0.046 0.0457-0.0306 0.0838-0.0843 0.1067-0.161l1.2806-4.7163c0.0305-0.092 0.0381-0.1687 0.0381-0.2377 0-0.092-0.0381-0.138-0.1067-0.138-0.1067 0-0.2439 0.0843-0.4116 0.253s-0.3049 0.3298-0.404 0.4985l-0.1525-0.0997c0.122-0.184 0.2516-0.3604 0.3964-0.5138s0.3049-0.2837 0.4726-0.3834 0.3202-0.1534 0.465-0.1534c0.1372 0 0.2363 0.0383 0.3049 0.1227s0.0991 0.1917 0.0991 0.3297c0 0.0997-0.0152 0.2071-0.0533 0.3221l-0.1144 0.4065h0.0305c0.2287-0.3835 0.4497-0.6749 0.6708-0.8819 0.2211-0.1994 0.4726-0.3068 0.7547-0.3068 0.2973 0 0.5412 0.1074 0.7318 0.3221 0.1905 0.2147 0.282 0.5368 0.282 0.9509 0 0.4372-0.1067 0.8819-0.3125 1.3344-0.2059 0.4448-0.4955 0.8205-0.8614 1.1043-0.3659 0.2914-0.7623 0.4371-1.1892 0.4371-0.3582 0-0.6403-0.0844-0.8537-0.2531l-0.4269 1.5951c0 0.0844 0.0229 0.1381 0.061 0.1611 0.0381 0.0306 0.1067 0.0383 0.2058 0.0383h0.3278l-0.0381 0.1841zm0.3049-3.589-0.3125 1.1657c0.1219 0.3297 0.3659 0.4908 0.7394 0.4908 0.2744 0 0.5336-0.1534 0.7927-0.4525 0.2592-0.2991 0.4727-0.6748 0.6327-1.1273 0.1601-0.4524 0.244-0.8819 0.244-1.2883 0-0.3221-0.0534-0.5445-0.1525-0.6595-0.0991-0.1227-0.2058-0.1764-0.3049-0.1764-0.1753 0-0.3659 0.1074-0.5946 0.3144-0.2287 0.2071-0.4345 0.4755-0.625 0.7976-0.1906 0.322-0.3354 0.6365-0.4193 0.9432"/><path d="m61.524 20.195h0.6479l-0.9376 3.2745c-0.0305 0.1381-0.0534 0.2147-0.0534 0.2454 0 0.092 0.0381 0.1381 0.122 0.1381 0.1067 0 0.2439-0.0767 0.404-0.2378 0.1601-0.161 0.2973-0.3297 0.4116-0.5061l0.1525 0.0997c-0.1829 0.2914-0.3964 0.5368-0.6479 0.7439-0.244 0.207-0.4803 0.3067-0.6937 0.3067-0.2668 0-0.404-0.1534-0.404-0.4525 0-0.092 0.0152-0.1993 0.0533-0.3297l0.1677-0.5752h-0.0381c-0.1677 0.2761-0.3201 0.5138-0.4726 0.7056-0.1524 0.1917-0.3125 0.3451-0.4955 0.4678-0.1829 0.1227-0.3811 0.184-0.5946 0.184-0.2744 0-0.5031-0.092-0.6936-0.2837-0.1906-0.1918-0.2821-0.4602-0.2821-0.8206 0-0.2991 0.061-0.6212 0.1982-0.9739 0.1372-0.3528 0.3202-0.6902 0.5565-1.0046 0.2439-0.3221 0.5183-0.5752 0.8385-0.7746 0.3202-0.1993 0.6632-0.2914 1.0215-0.2914 0.3049 0 0.5259 0.0997 0.6631 0.3068l0.061-0.2147zm-0.4955 1.7484 0.3125-1.1196c0-0.161-0.0533-0.2837-0.1372-0.3834-0.0838-0.0997-0.1982-0.1457-0.343-0.1457-0.1677 0-0.3735 0.0997-0.6098 0.2914-0.2363 0.1994-0.465 0.4524-0.6785 0.7745-0.221 0.3221-0.3964 0.6672-0.5412 1.0276-0.1372 0.3681-0.2058 0.7132-0.2058 1.0353 0 0.2071 0.0457 0.3604 0.1372 0.4448 0.0915 0.092 0.1982 0.1304 0.3125 0.1304 0.1754 0 0.3964-0.1151 0.6404-0.3528 0.2515-0.2377 0.4802-0.5215 0.6936-0.8512 0.2135-0.3298 0.3507-0.6135 0.4117-0.8513"/><path d="m65.419 22.173h-1.4483l-0.5641 1.9862h-0.648l0.93-3.2745c0.0305-0.1381 0.0534-0.2148 0.0534-0.2378 0-0.092-0.0381-0.138-0.122-0.138-0.1143 0-0.2515 0.0844-0.4116 0.2454-0.1677 0.161-0.2973 0.3298-0.404 0.4985l-0.1525-0.0997c0.183-0.2914 0.3964-0.5368 0.6403-0.7362 0.244-0.2071 0.4803-0.3068 0.6937-0.3068 0.2516 0 0.3811 0.1534 0.3964 0.4525 0 0.1304-0.0153 0.2377-0.0458 0.3221l-0.3049 1.0966h1.4484l0.5107-1.7868h0.6479l-0.9376 3.2745c-0.0305 0.1381-0.0533 0.2147-0.0533 0.2454 0 0.092 0.0381 0.1381 0.1219 0.1381 0.1067 0 0.244-0.0767 0.404-0.2378 0.1601-0.161 0.2973-0.3297 0.4117-0.5061l0.1524 0.0997c-0.1829 0.2914-0.3964 0.5368-0.6479 0.7439-0.2439 0.207-0.4802 0.3067-0.6937 0.3067-0.2668 0-0.3964-0.1534-0.3964-0.4525 0-0.1073 0.0153-0.2147 0.0534-0.3297z"/></g><g transform="matrix(.26458 0 0 .26458 127.18 173.25)" fill="none"><path d="m28.614 16.675c-0.0152-0.0613-0.0686-0.0996-0.0991-0.1763-0.1296-0.2914-0.282-0.4985-0.5488-0.6519-0.3735-0.207-1.1739-0.0383-1.4712 0.0997-0.3735 0.1687-0.6327 0.3528-0.9452 0.5752l-0.1754 0.0997c-0.3811 0.3144-0.7623 0.6365-1.151 0.9279-0.2363 0.1764-0.4803 0.3451-0.7242 0.4754-0.0686-0.23-0.1143-0.4908-0.2515-0.6518 0.1372-0.2991 0.0152-0.5752-0.0458-0.9816-0.0381-0.2607-0.0838-0.5368-0.0991-0.7515-0.0228-0.3528 0.0763-0.7669-0.0228-0.9509-0.1982-0.3681-1.4636-0.2991-1.5703-0.6826-0.0839-0.2607 0.1524-0.5598 0.2973-0.8052 0.1677-0.2607 0.2896-0.4984 0.3963-0.7285 0.1144-0.2377 0.2592-0.4985 0.3507-0.7822 0.2134-0.6365 0.2515-1.227 0.1524-2.0092 0.648 0.37572 0.3202 1.6104 0.648 2.2623 0.0838 0.161 0.3049 0.3987 0.4269 0.4984 0.2439 0.2071 0.7241 0.2991 1.0748 0.3528 0.747 0.1073 1.3263-0.3911 1.6694-0.7822 0.404-0.4525 0.7622-1.089 0.8766-1.5108 0.0686-0.2684 0.0838-0.60579 0.0762-0.80518s-0.0686-0.44479-0.1524-0.59816c-0.1144-0.22239-0.3354-0.48313-0.648-0.52914-0.0762 0.27607-0.0305 0.58282-0.1753 0.82822-0.0991 0.16871-0.3506 0.37577-0.5488 0.39877-0.3126 0.03835-0.7547-0.17638-0.9529-0.37577-0.2668-0.2684-0.3125-0.67484-0.5031-1.0046-0.2973-0.5138-0.8995-0.87423-1.4712-0.85122-0.4879 0.01533-0.7547 0.23773-1.1968 0.45245-0.3201-0.2684-0.7013-0.45245-1.1739-0.60583-0.8232-0.2684-1.7837-0.16871-2.5689 0.1227-0.1448-0.07669-0.16-0.42945-0.3963-0.45245-0.1982-0.01534-0.3507 0.25307-0.5489 0.37576-0.6632 0.40645-1.7227 0.17638-2.3478-0.07668-0.2058-0.07669-0.3507-0.26841-0.4955-0.42945 0.0839-0.09202 0.3278-0.01534 0.3964-0.1227-0.0076-0.78988-0.3888-1.4264-0.7242-2.0092-0.4878-0.84356-1.1358-1.5951-1.9209-2.1626-0.6632-0.47546-1.4255-0.84356-2.2945-1.1043-0.48786-0.14571-0.66318-0.19172-0.84613 0.19938-0.0686 0.13804-0.06098 0.37577-0.25155 0.37577-0.16008-0.07669-0.1677-0.28374-0.27442-0.42945-0.18295-0.2454-0.54122-0.44478-0.84613-0.57515-0.17532-0.07669-0.34303-0.17638-0.47261-0.15338-0.09148 0.28375 0.12958 0.66718 0.19819 0.95859-0.85375 0.32976-1.5855 0.77454-1.9743 1.5798-0.10672 0.21472-0.17533 0.48313-0.22869 0.75153 0.15246 0.16871 0.51835 0.03835 0.64794 0.17638 0.13721 0.13804 0.12959 0.89724 0.12959 1.1273-0.00763 0.56749-0.33541 1.0736-0.42688 1.6258-0.02287 0.1457-0.05336 0.31442-0.05336 0.47546-0.03049 0.26074-0.03049 0.59049 0.14483 0.69018 0 0 1e-5 0.23006 0.1982 0.39878l0.12958 0.08435 0.18295 0.08436c0.06861 0.03067 0.16008 0.06135 0.25155 0.07669 0.33541 0.06901 0.74704 0.023 1.0291-0.49847 0.08385-0.13804 0.1677-0.33742 0.24393-0.59816 0 0 0.25917-0.32975 0.48786-0.66718l0.12958-0.16871c0.0991-0.14571 0.15246-0.33742 0.27443-0.45245 0.0686-0.06902 0.19057-0.11503 0.27442-0.17638 0.09147-0.06902 0.17532-0.17638 0.29728-0.17638 0.07623 0.3911 0.15246 0.69785 0.12197 1.0813-0.06861 1.2117-1.0367 1.9095-1.151 3.1135-0.03049 0.2838 0.02287 0.7055 0.07623 1.0506 0.04573 0.3145 0.18294 0.7899 0.09909 1.0046-0.03811 0.1074-0.24393 0.1994-0.39638 0.2991-0.31254 0.2071-0.55647 0.3835-0.84613 0.5522-0.1677 0.092-0.3659 0.161-0.47261 0.253-0.17533 0.1457-0.25156 0.4448-0.37352 0.7056-0.12959 0.2684-0.27442 0.5138-0.37352 0.7055-0.27442 0.5214-0.48023 0.9202-0.95285 1.227-0.5031-0.5138-1.2349-1.1887-1.8981-1.6335-0.20582-0.138-0.52597-0.3451-0.74704-0.4217-0.8385-0.2915-1.5779 0.0306-1.6999 0.8282-0.13721 0.9432 0.89187 1.7101 1.7227 1.3343 0.17533-0.0767 0.2668-0.3067 0.44975-0.3221 0.16008-0.023 0.38876 0.1304 0.47261 0.1994 0.16008 0.1227 0.2668 0.3144 0.39638 0.4755 0.45737 0.5751 0.79278 1.296 1.273 1.7868 0.41163 0.4141 0.869 0.8436 1.3264 1.181 0.54121 0.3988 1.1129 0.7975 1.7228 1.135 1.0596 0.5751 2.3479 1.0506 3.598 1.4033 0.5336 0.1534 1.0596 0.1994 1.6999 0.3528 0.8309 0.1994 2.7366 0.1073 2.9424 0.0997 0.2439-0.0077 0.4726-0.0154 0.7013-0.023 0.9833-0.046 1.9743-0.2378 2.9043-0.5598 0.5793-0.1994 1.1739-0.3605 1.7303-0.6212 0.3964-0.1841 1.8829-1.0506 2.2183-1.3114 0.3201-0.253 0.5869-0.5521 0.8613-0.8435 0.1754-0.1841 0.3431-0.3528 0.4955-0.5522 0.0686-0.0843 0.1448-0.161 0.2211-0.253 0.282-0.3221 0.6632-1.02 1.273-0.9049 0.221 0.046 0.3125 0.2684 0.4955 0.3527 0.343 0.1611 0.8232 0.046 1.0748-0.0997 0.3506-0.207 0.7699-0.5828 0.6479-1.204m-21.184-8.7193s-0.06098 0.05369-0.16008-0.023c0 0-0.64794-0.41411-1.7151-0.52914 0 0-0.12958-0.03835-0.04573-0.23773 0.09909-0.21473 0.6022-0.06135 1.0748 0.1457 0.38876 0.16871 0.75466 0.37577 0.85375 0.43712l0.0991 0.10736-0.0991 0.10736m6.5404-0.75153c0.0533 0.04601 0.1219 0.10736 0.2058 0.16871-1.0444 0.99693-1.1968 1.7561-1.3798 2.431-0.4116 1.5568 1.395 2.1243 1.395 2.1243 1.6923 0.6902 2.95-0.2378 2.95-0.2378 1.7685-1.1349 0.6327-3.0751 0.6327-3.0751-0.16-0.34509-0.3506-0.80521-0.5336-1.0276 0.1144-0.08435 0.2211-0.17638 0.3126-0.29907 0.2591 0.37576 0.7394 1.135 0.9528 1.8865 0 0 0.6022 1.4187-0.7623 2.6534 0 0-1.2577 1.0199-2.8433 0.7899 0 0-1.9819 0.0843-2.6527-1.7408 0 0-0.4879-2.201 1.7151-3.6734m7.6 11.38c-0.0305 0.2608-0.0991 0.4908-0.1296 0.7285-1.113 0.4372-2.3555 0.8819-3.72 1.1043-0.7089 0.1151-1.5169 0.1227-2.2944 0.1227s-1.5322-0.046-2.2487-0.1533c-0.7013-0.0997-1.3416-0.2761-1.9667-0.4525-0.6098-0.1687-1.1815-0.4294-1.7456-0.6518-1.151-0.4602-2.1954-1.066-3.0949-1.7025 0-0.3144 0.19819-0.5598 0.15246-0.8359 0.32016-0.2454 0.42687-0.6902 0.62507-1.1503 0.11434-0.2761 0.2363-0.6211 0.44974-0.7515 0.1677-0.1074 0.44975-0.1534 0.67081-0.1994 0.70892-0.1534 1.3416-0.3604 1.9972-0.5521 0.0762-0.0537 0.1677-0.1151 0.2515-0.1764 0.0762-0.0537 0.1601-0.1381 0.2211-0.1227 0.9909 0.3067 1.9895 0.6058 3.2244 0.6748 2.4622-0.023 3.6285-0.5598 3.9715-0.7055s0.3278 0.161 0.4955 0.4525c0.0609 0.1073 0.1296 0.1993 0.1753 0.253 0.2592 0.3068 0.686 0.6519 1.0748 0.8052 0.3125 0.1227 0.6098 0.1074 0.8461 0.1764 0.404 0.115 0.6175 0.2761 0.9453 0.5522 0.0762 0.5828 0.221 1.204 0.1981 1.8328 0 0.2454-0.0686 0.5138-0.099 0.7515z" fill="#1d1d1b"/></g></g></g></svg>
